<svg width="15" height="15" viewBox="0 0 15 15" fill="none" xmlns="http://www.w3.org/2000/svg">
<g clip-path="url(#clip0_819_602)">
<path opacity="0.5" d="M4.20744 14.9999C3.29156 14.9986 2.49133 14.683 1.82158 14.0676C1.39534 13.6761 0.958715 13.2869 0.632803 12.8002C-0.0125231 11.836 -0.174699 10.7976 0.194355 9.69167C0.328723 9.28897 0.553794 8.93176 0.851637 8.62706C1.2394 8.23059 1.63159 7.83855 2.02637 7.44936C2.38217 7.09839 2.92224 7.09189 3.26583 7.427C3.62241 7.77485 3.63722 8.30729 3.2861 8.67438C2.95083 9.02509 2.614 9.37554 2.25742 9.70389C1.66252 10.2517 1.62795 11.0576 1.98661 11.6259C2.36476 12.2252 2.85285 12.7464 3.49272 13.0779C4.03019 13.3563 4.74465 13.2997 5.21428 12.8275C6.31989 11.7156 7.42731 10.6055 8.54045 9.50111C9.05401 8.99155 9.05115 8.19238 8.72576 7.62458C8.63012 7.45768 8.50615 7.31443 8.37932 7.1717C8.12721 6.88832 8.07913 6.52227 8.24313 6.1921C8.40141 5.87362 8.73382 5.68202 9.09351 5.70412C9.30039 5.71686 9.48206 5.79511 9.6289 5.94044C10.2794 6.58493 10.6521 7.35914 10.708 8.27895C10.768 9.26739 10.438 10.1022 9.73572 10.7994C8.64441 11.883 7.56064 12.9742 6.47245 14.0606C5.84193 14.6905 5.09577 14.9973 4.20744 14.9999Z" fill="#474020"/>
<path opacity="0.5" d="M14.9998 4.21735C14.9925 5.09036 14.6869 5.83988 14.0709 6.46045C13.8025 6.73108 13.5361 7.00406 13.2608 7.26742C12.8135 7.69587 12.0814 7.54612 11.8465 6.97312C11.709 6.63775 11.7547 6.31252 12.0063 6.04214C12.2571 5.7728 12.5178 5.51204 12.7844 5.25856C13.298 4.77006 13.3404 4.0754 13.0862 3.49721C12.9947 3.28896 12.8697 3.10334 12.7067 2.94319C12.4658 2.70635 12.2397 2.45287 11.9858 2.23085C11.479 1.78785 10.9002 1.63862 10.2486 1.87C10.0482 1.94123 9.88918 2.07434 9.74078 2.22279C8.66636 3.29858 7.60026 4.38269 6.51285 5.44497C5.95849 5.98624 5.94393 6.77892 6.27322 7.36907C6.36029 7.52506 6.4697 7.66415 6.59212 7.79388C6.9461 8.16929 6.94272 8.70328 6.58562 9.05373C6.23554 9.39717 5.68585 9.38365 5.32771 9.01578C4.70266 8.37363 4.34608 7.61007 4.29514 6.70925C4.2403 5.74082 4.5566 4.91591 5.24247 4.23061C6.36107 3.11322 7.47239 1.98829 8.59931 0.879219C9.31143 0.178316 10.1904 -0.079843 11.1728 0.0210288C12.0084 0.106822 12.7236 0.465853 13.3167 1.05808C13.6839 1.42465 14.0787 1.76679 14.3727 2.20173C14.7846 2.81086 15.004 3.47823 14.9998 4.21735Z" fill="#474020"/>
</g>
<defs>
<clipPath id="clip0_819_602">
<rect width="15" height="15" fill="white"/>
</clipPath>
</defs>
</svg>
