<svg width="24" height="24" viewBox="0 0 24 24" fill="none" xmlns="http://www.w3.org/2000/svg">
<path opacity="0.25" d="M5.49738 20C4.30071 19.9983 3.25514 19.591 2.38005 18.7967C1.82314 18.2914 1.25264 17.7891 0.826812 17.1609C-0.0163625 15.9164 -0.22826 14.5762 0.253942 13.1488C0.429505 12.6291 0.72358 12.168 1.11274 11.7748C1.61939 11.2631 2.13181 10.7571 2.64764 10.2547C3.11252 9.80176 3.81816 9.79337 4.26709 10.2259C4.73299 10.6748 4.75235 11.362 4.29357 11.8358C3.85552 12.2885 3.41542 12.7408 2.94952 13.1646C2.17222 13.8716 2.12706 14.9118 2.59568 15.6453C3.08977 16.4187 3.7275 17.0915 4.56354 17.5193C5.26579 17.8787 6.19929 17.8055 6.81291 17.1962C8.25748 15.7611 9.70443 14.3283 11.1588 12.9029C11.8299 12.2452 11.8261 11.2137 11.401 10.4809C11.276 10.2655 11.114 10.0806 10.9483 9.89638C10.6189 9.53064 10.5561 9.05819 10.7704 8.63205C10.9772 8.221 11.4115 7.97371 11.8815 8.00223C12.1518 8.01867 12.3891 8.11967 12.581 8.30724C13.431 9.13906 13.9179 10.1383 13.9909 11.3255C14.0694 12.6012 13.6381 13.6787 12.7206 14.5786C11.2947 15.9771 9.87863 17.3854 8.45681 18.7877C7.633 19.6007 6.65806 19.9966 5.49738 20Z" fill="#051441"/>
<path opacity="0.25" d="M19.9999 5.44066C19.9904 6.5669 19.5909 7.53383 18.7858 8.33441C18.4349 8.68355 18.0867 9.03571 17.7269 9.37546C17.1423 9.92818 16.1853 9.735 15.8782 8.9958C15.6985 8.56314 15.7583 8.14357 16.0871 7.79476C16.415 7.4473 16.7557 7.1109 17.1042 6.7839C17.7755 6.1537 17.8309 5.25754 17.4986 4.51163C17.3791 4.24298 17.2157 4.00351 17.0027 3.79691C16.6877 3.49137 16.3922 3.16437 16.0603 2.87794C15.3979 2.30644 14.6413 2.11393 13.7897 2.41242C13.5278 2.50432 13.3199 2.67604 13.1259 2.86755C11.7215 4.25539 10.328 5.65397 8.90669 7.02437C8.18209 7.72266 8.16307 8.74526 8.59348 9.5066C8.70728 9.70783 8.8503 9.88726 9.0103 10.0546C9.47299 10.5389 9.46857 11.2278 9.00181 11.6799C8.54422 12.123 7.82573 12.1055 7.35761 11.631C6.54061 10.8025 6.07453 9.8175 6.00794 8.65538C5.93627 7.40605 6.34969 6.34185 7.24619 5.45777C8.7083 4.01626 10.1609 2.56503 11.6339 1.13425C12.5647 0.23004 13.7136 -0.103003 14.9977 0.0271286C16.0899 0.137807 17.0247 0.600981 17.8 1.365C18.28 1.8379 18.796 2.27927 19.1802 2.84038C19.7186 3.6262 20.0054 4.48715 19.9999 5.44066Z" fill="#051441"/>
</svg>
