<svg width="10" height="7" viewBox="0 0 10 7" fill="none" xmlns="http://www.w3.org/2000/svg">
<g clip-path="url(#clip0_778_2111)">
<path d="M0.000585846 3.49727C0.000585846 2.57399 0.000306066 1.65064 -0.000254784 0.727211C-0.000254784 0.562152 0.0831513 0.449372 0.236744 0.37572C0.361493 0.315877 0.500064 0.29034 0.634427 0.255158C1.00395 0.161021 1.38076 0.092508 1.76162 0.050205C2.19331 0.000226949 2.62693 -0.00974675 3.06091 0.00636461C3.84125 0.0359569 4.59491 0.191699 5.33547 0.412655C5.72919 0.530147 6.13601 0.598977 6.54835 0.640406C6.80466 0.665885 7.06233 0.678326 7.32016 0.677671C7.58997 0.677308 7.85951 0.662082 8.12731 0.632077C8.58756 0.579824 9.04137 0.488083 9.48272 0.358074C9.8089 0.26294 10.0328 0.552397 9.9804 0.793848C9.95636 0.901695 9.88052 0.975676 9.77116 1.01842C9.62922 1.07322 9.4796 1.10851 9.33129 1.14534C8.9126 1.24826 8.4853 1.31945 8.05375 1.35818C6.99591 1.45269 5.92805 1.3471 4.917 1.04801C4.45105 0.910191 3.97195 0.812547 3.48599 0.756365C3.17657 0.719513 2.86448 0.704634 2.55253 0.711867C1.97734 0.727649 1.4108 0.799547 0.855082 0.939069C0.802562 0.952331 0.786457 0.973922 0.786457 1.02226C0.786457 2.22845 0.785736 3.43465 0.784294 4.64084C0.783733 5.0148 0.780969 5.38876 0.776002 5.76272C0.775401 5.81434 0.78802 5.82399 0.843063 5.81138C1.19976 5.73055 1.56236 5.67316 1.92807 5.63964C2.19049 5.61473 2.45419 5.60277 2.71803 5.6038C3.50469 5.60617 4.28632 5.71838 5.03574 5.93655C5.51007 6.07407 5.9975 6.17072 6.49163 6.22524C6.90683 6.26997 7.32542 6.28273 7.74296 6.26338C8.21824 6.24177 8.68952 6.17304 9.14849 6.05842C9.20546 6.0444 9.21135 6.01612 9.21135 5.9714C9.21135 4.8892 9.21287 3.80707 9.21592 2.72502C9.21676 2.52259 9.21808 2.32015 9.22157 2.11761C9.22469 1.93129 9.42455 1.74431 9.61949 1.74387C9.82091 1.74387 9.99722 1.90707 9.9977 2.09788C9.99866 2.56325 9.99866 3.02858 9.9977 3.49387C9.9977 4.41726 9.99614 5.34054 9.9989 6.26393C9.9989 6.44148 9.90829 6.55875 9.74147 6.63164C9.59858 6.69411 9.44282 6.7248 9.29055 6.76228C8.90633 6.85578 8.51478 6.9221 8.11937 6.96066C7.72943 6.99843 7.33688 7.0088 6.94519 6.99168C6.2265 6.96263 5.52704 6.83561 4.84201 6.63515C4.37729 6.49962 3.89886 6.40687 3.41388 6.35829C3.12544 6.32914 2.83628 6.3104 2.54641 6.31818C1.86341 6.33637 1.19532 6.43666 0.545131 6.63142C0.335293 6.69422 0.155861 6.63843 0.0546678 6.48214C0.0139261 6.41923 -0.00109603 6.35062 -0.000975848 6.27796C0.000386217 5.3511 0.000906332 4.4242 0.000585846 3.49727Z" fill="#468AFC"/>
<path d="M4.98357 2.09563C5.70935 2.09355 6.39054 2.60495 6.51192 3.24545C6.59124 3.66424 6.45976 4.03666 6.17289 4.36338C5.92808 4.64265 5.6126 4.82283 5.22213 4.88191C4.79824 4.94602 4.41619 4.84903 4.07871 4.61185C3.74124 4.37467 3.52756 4.06385 3.47504 3.67542C3.4212 3.2779 3.55616 2.92586 3.83138 2.61886C4.08004 2.34135 4.399 2.1695 4.78911 2.11108C4.80097 2.1086 4.81303 2.10695 4.82517 2.10615C4.88057 2.10549 4.93549 2.09103 4.98357 2.09563ZM5.74348 3.48219C5.75646 3.09157 5.36815 2.81363 5.01037 2.81363C4.60607 2.81363 4.25947 3.14528 4.25442 3.52877C4.24985 3.883 4.58913 4.1775 5.01229 4.18276C5.42439 4.18748 5.74348 3.87358 5.74348 3.48219Z" fill="#468AFC"/>
<path d="M2.67815 1.39429C2.94976 1.40229 3.21716 1.4081 3.48337 1.43813C3.68395 1.46092 3.85593 1.63541 3.85137 1.81077C3.84704 1.9835 3.67722 2.14462 3.47231 2.15053C3.31127 2.15503 3.1495 2.13629 2.9881 2.12982C2.7505 2.12017 2.51302 2.12127 2.2753 2.12982C2.13228 2.13486 1.98914 2.16632 1.84576 2.13629C1.63677 2.09245 1.53966 1.97188 1.55036 1.7711C1.55961 1.59858 1.70347 1.46191 1.89384 1.43802C2.15547 1.4047 2.41903 1.40262 2.67815 1.39429Z" fill="#468AFC"/>
<path d="M7.3361 5.65877C7.04094 5.64989 6.77738 5.64408 6.51502 5.61646C6.36155 5.60024 6.21084 5.48494 6.16541 5.34246C6.12226 5.20842 6.16469 5.07712 6.28247 4.99393C6.40649 4.90625 6.55059 4.90132 6.69962 4.91239C6.96246 4.9319 7.22542 4.94823 7.48982 4.93595C7.68127 4.92707 7.87248 4.91611 8.06369 4.90121C8.23194 4.88816 8.41222 5.03339 8.44827 5.20042C8.48865 5.38674 8.38445 5.53941 8.18122 5.59367C8.08508 5.61942 7.98497 5.62918 7.8857 5.63521C7.69232 5.64737 7.49859 5.6523 7.3361 5.65877Z" fill="#468AFC"/>
</g>
<defs>
<clipPath id="clip0_778_2111">
<rect width="10" height="7" fill="white"/>
</clipPath>
</defs>
</svg>
