<svg width="77" height="11" viewBox="0 0 77 11" fill="none" xmlns="http://www.w3.org/2000/svg">
<path d="M6.11636 10.196C4.59503 10.196 3.33036 9.72 2.32236 8.768C1.31436 7.79733 0.810359 6.57467 0.810359 5.1C0.810359 3.60667 1.30969 2.384 2.30836 1.432C3.31636 0.479999 4.58569 0.00399935 6.11636 0.00399935C7.06836 0.00399935 7.93169 0.209333 8.70636 0.62V2.65C7.95036 2.146 7.09169 1.894 6.13036 1.894C5.20636 1.894 4.42703 2.19733 3.79236 2.804C3.17636 3.40133 2.86836 4.16667 2.86836 5.1C2.86836 6.03333 3.18569 6.80333 3.82036 7.41C4.44569 8.00733 5.24369 8.306 6.21436 8.306C7.28769 8.306 8.18369 8.02133 8.90236 7.452V9.482C8.10903 9.958 7.18036 10.196 6.11636 10.196ZM11.5977 10H9.48369L13.6837 0.143999H15.6157L19.8157 10H17.6737L16.7077 7.732H12.5637L11.5977 10ZM14.6357 2.664L13.1937 6.066H16.0637L14.6357 2.664ZM22.8438 10H20.8278V0.199999H25.3638C26.4092 0.199999 27.2305 0.470666 27.8278 1.012C28.4345 1.544 28.7378 2.23933 28.7378 3.098C28.7378 3.75133 28.5558 4.32067 28.1918 4.806C27.8372 5.282 27.3425 5.618 26.7078 5.814L29.7318 10H27.3938L24.5378 6.038H22.8438V10ZM22.8438 1.964V4.344H25.2518C25.7092 4.344 26.0638 4.24133 26.3158 4.036C26.5772 3.83067 26.7078 3.53667 26.7078 3.154C26.7078 2.78067 26.5772 2.49133 26.3158 2.286C26.0638 2.07133 25.7092 1.964 25.2518 1.964H22.8438ZM35.5686 10.056H33.6646L29.5486 0.199999H31.7746L34.6306 7.256L37.5006 0.199999H39.6846L35.5686 10.056ZM48.0781 10H40.7281V0.199999H47.9241V2.006H42.7441V3.896H46.9161V5.674H42.7441V8.194H48.0781V10ZM51.3739 10H49.3999V0.199999H51.1219L56.0639 6.472V0.199999H58.0239V10H56.3579L51.3739 3.7V10ZM59.2594 2.006V0.199999H67.4774V2.006H64.3694V10H62.3534V2.006H59.2594ZM68.564 10H66.45L70.65 0.143999H72.582L76.782 10H74.64L73.674 7.732H69.53L68.564 10ZM71.602 2.664L70.16 6.066H73.03L71.602 2.664Z" fill="white"/>
</svg>
