<svg width="15" height="15" viewBox="0 0 15 15" fill="none" xmlns="http://www.w3.org/2000/svg">
<path d="M7.54167 4.48325C5.86144 4.48325 4.525 5.81969 4.525 7.49992C4.525 9.18015 5.86144 10.5166 7.54167 10.5166C9.2219 10.5166 10.5583 9.18015 10.5583 7.49992C10.5583 5.81969 9.2219 4.48325 7.54167 4.48325ZM7.54167 9.48325C6.43023 9.48325 5.55833 8.61136 5.55833 7.49992C5.55833 6.38848 6.43023 5.51659 7.54167 5.51659C8.65311 5.51659 9.525 6.38848 9.525 7.49992C9.525 8.61136 8.65311 9.48325 7.54167 9.48325Z" fill="#051441" stroke="#051441" stroke-width="0.2"/>
<path d="M12.9215 4.089L12.9216 4.08902L12.9229 4.08631C13.0662 3.79986 13.0196 3.41957 12.7792 3.17921L11.7792 2.17921C11.5388 1.93885 11.1586 1.89225 10.8721 2.03548L10.8721 2.03543L10.8694 2.03687L9.82724 2.59805L9.28931 2.38287L8.9287 1.26098L8.92836 1.25996C8.83283 0.973344 8.54749 0.733252 8.2085 0.733252H6.79183C6.45505 0.733252 6.16344 0.972338 6.1108 1.31041L5.75663 2.41227C5.53866 2.45531 5.34978 2.53003 5.16483 2.63526L4.13091 2.07854L4.13093 2.0785L4.12822 2.07714C3.84177 1.93392 3.46148 1.98052 3.22112 2.22087L2.22112 3.22087C1.98076 3.46123 1.93416 3.84152 2.07739 4.12797L2.07738 4.12798L2.07811 4.12939L2.59874 5.1306C2.56216 5.2243 2.52575 5.32444 2.48984 5.42318L2.48952 5.42408C2.45357 5.52292 2.41813 5.62036 2.38285 5.71086L1.26123 6.07138L1.26123 6.07138L1.26021 6.07172C0.973589 6.16726 0.733496 6.45259 0.733496 6.79158V8.20825C0.733496 8.5496 0.976259 8.83448 1.30441 8.92894L2.42478 9.28906L2.63996 9.82699L2.07878 10.8692L2.07874 10.8692L2.07739 10.8719C1.93416 11.1583 1.98076 11.5386 2.22112 11.779L3.22112 12.779C3.46148 13.0193 3.84177 13.0659 4.12822 12.9227L4.12824 12.9227L4.13091 12.9213L5.17309 12.3601L5.71045 12.5751L6.07132 13.7379L6.0713 13.7379L6.07196 13.7399C6.1675 14.0265 6.45284 14.2666 6.79183 14.2666H8.2085C8.54749 14.2666 8.83283 14.0265 8.92836 13.7399L8.92838 13.7399L8.929 13.7379L9.28988 12.5751L9.82724 12.3601L10.8694 12.9213L10.8694 12.9213L10.8721 12.9227C11.1586 13.0659 11.5388 13.0193 11.7792 12.779L12.7792 11.779C13.0196 11.5386 13.0662 11.1583 12.9229 10.8719L12.923 10.8718L12.9215 10.8692L12.3604 9.82699L12.5753 9.28963L13.7381 8.92876L13.7381 8.92878L13.7401 8.92812C14.0267 8.83258 14.2668 8.54725 14.2668 8.20825V6.79158C14.2668 6.45745 14.0312 6.12588 13.6959 6.02923L12.5755 5.66911L12.3604 5.13118L12.9215 4.089ZM11.8043 8.44595L11.7472 8.4634L11.7354 8.52197L11.6958 8.7201L11.3276 9.57928L11.2061 9.7818L11.1766 9.83089L11.204 9.88114L11.9182 11.1904L11.1907 11.918L9.88138 11.2038L9.83113 11.1764L9.78205 11.2058L9.57462 11.3303C9.2908 11.4924 9.00813 11.6135 8.72655 11.6943L8.52222 11.7352L8.46365 11.7469L8.44619 11.804L8.00949 13.2333H6.99084L6.55413 11.804L6.53668 11.7469L6.47811 11.7352L6.27998 11.6956L5.4208 11.3273L5.21828 11.2058L5.1692 11.1764L5.11894 11.2038L3.80963 11.918L3.08212 11.1904L3.79629 9.88114L3.8237 9.83089L3.79425 9.7818L3.66979 9.57438C3.5077 9.29056 3.38657 9.00789 3.30575 8.72631L3.26489 8.52197L3.25317 8.4634L3.19605 8.44595L1.76683 8.00924V6.99141L3.11171 6.59586L3.15831 6.58215L3.17634 6.53706L3.25968 6.32872L3.26054 6.32907L3.26384 6.31584C3.34455 5.99303 3.46555 5.71011 3.62812 5.42546L3.75258 5.21803L3.78123 5.17029L3.75573 5.12079L3.08082 3.81068L3.80891 3.08259L5.07614 3.79541L5.12678 3.8239L5.17661 3.794L5.38402 3.66956C5.66868 3.50698 5.9516 3.38597 6.27442 3.30527L6.27464 3.30616L6.2873 3.3011L6.49564 3.21777L6.53967 3.20015L6.5539 3.1549L6.99022 1.76659H8.0101L8.44643 3.1549L8.46065 3.20015L8.50469 3.21777L8.71302 3.3011L8.71283 3.30159L8.72269 3.3044C9.00555 3.38522 9.28951 3.50671 9.57463 3.66955L9.78205 3.794L9.83113 3.82345L9.88138 3.79604L11.1907 3.08187L11.9182 3.80939L11.204 5.1187L11.1766 5.16895L11.2061 5.21803L11.3305 5.42546C11.4926 5.70928 11.6138 5.99195 11.6946 6.27353L11.7354 6.47786L11.7472 6.53643L11.8043 6.55389L13.2335 6.99059V8.00924L11.8043 8.44595Z" fill="#051441" stroke="#051441" stroke-width="0.2"/>
</svg>
