<svg width="18" height="18" viewBox="0 0 18 18" fill="none" xmlns="http://www.w3.org/2000/svg">
<g clip-path="url(#clip0_819_594)">
<path d="M9.00709 0.000319217C11.0688 0.000319217 13.1308 -0.000567497 15.1925 0.000614788C16.7298 0.0015015 17.9966 1.26359 17.9981 2.80174C18.0007 5.67322 18.001 8.54499 17.9981 11.4165C17.9966 12.9366 16.7298 14.2043 15.212 14.2078C13.8097 14.2111 12.4071 14.2099 11.0047 14.2061C10.8819 14.2058 10.7945 14.2401 10.7071 14.3281C9.60948 15.4374 8.50717 16.542 7.40839 17.6501C7.11842 17.9427 6.78149 18.0748 6.37724 17.9575C5.9405 17.8307 5.67947 17.4514 5.67799 16.9572C5.67563 16.1101 5.6771 15.2627 5.6771 14.4156C5.6771 14.2093 5.67681 14.2087 5.47513 14.2087C4.59428 14.2084 3.71343 14.2096 2.83258 14.2084C1.33545 14.2061 0.080767 13.0111 0.0267289 11.5128C-0.0237657 10.1148 0.0137361 8.71583 0.00871619 7.31719C0.00340097 5.87362 0.00901148 4.43064 0.00753503 2.98736C0.00664916 2.11838 0.278611 1.36024 0.92323 0.761711C1.4518 0.270767 2.07781 0.00120593 2.80659 0.00091036C4.87333 -0.000567497 6.94036 0.000319217 9.00709 0.000319217ZM6.65983 16.9694C6.73897 16.9398 6.77145 16.8878 6.8122 16.847C7.97151 15.6878 9.13141 14.5291 10.2866 13.3658C10.3896 13.262 10.4945 13.2224 10.6374 13.223C12.1481 13.2265 13.6591 13.2271 15.1698 13.2245C16.1995 13.2227 17.0151 12.4054 17.0157 11.3733C17.0177 8.52607 17.018 5.67884 17.0154 2.83189C17.0145 1.80094 16.1953 0.985754 15.166 0.984572C13.6502 0.983094 12.1345 0.983981 10.6188 0.983981C8.04504 0.983981 5.47129 0.985459 2.89724 0.981912C2.56357 0.981321 2.25085 1.04753 1.96413 1.21394C1.30356 1.59611 0.992918 2.18666 0.991737 2.93859C0.987603 5.66258 0.99026 8.38657 0.99026 11.1108C0.99026 11.2583 0.997643 11.4052 1.01064 11.5527C1.09538 12.513 1.96767 13.2443 2.88632 13.2295C4.07191 13.2103 5.25838 13.2248 6.44427 13.2251C6.65924 13.2251 6.65983 13.226 6.65983 13.4364C6.66013 14.5052 6.65983 15.5743 6.65983 16.6431C6.65983 16.7462 6.65983 16.8494 6.65983 16.9694Z" fill="#474020"/>
<path d="M9.01181 4.76824C7.03839 4.76824 5.06467 4.76824 3.09124 4.76824C2.84733 4.76824 2.84379 4.76528 2.84261 4.52203C2.84172 4.33493 2.84763 4.14754 2.84113 3.96044C2.83611 3.81561 2.89104 3.76182 3.03957 3.76271C3.94522 3.76773 4.85058 3.76507 5.75624 3.76507C8.81249 3.76507 11.8687 3.76537 14.925 3.76537C15.1639 3.76537 15.1639 3.76507 15.1645 3.9968C15.1648 4.17917 15.1648 4.36124 15.1645 4.54361C15.1642 4.76735 15.1639 4.76824 14.9327 4.76824C14.3421 4.76854 13.7515 4.76854 13.1609 4.76854C11.7781 4.76854 10.3949 4.76854 9.01211 4.76854C9.01181 4.76854 9.01181 4.76824 9.01181 4.76824Z" fill="#474020"/>
<path d="M8.54065 7.6056C6.72077 7.6056 4.9009 7.6056 3.08073 7.6053C2.84302 7.6053 2.84243 7.60382 2.84214 7.36766C2.84184 7.18559 2.84155 7.00322 2.84214 6.82115C2.84273 6.61041 2.84952 6.60302 3.05563 6.60302C4.20165 6.60243 5.34767 6.60243 6.4937 6.60243C8.97266 6.60243 11.4519 6.60243 13.9309 6.60243C13.9604 6.60243 13.9899 6.60213 14.0195 6.60243C14.2279 6.6042 14.2365 6.61218 14.2368 6.81819C14.2371 7.01031 14.2374 7.20214 14.2362 7.39426C14.235 7.59466 14.2262 7.605 14.0298 7.605C13.2281 7.60589 12.4264 7.60589 11.6244 7.60589C10.5965 7.60589 9.56826 7.60589 8.54035 7.60589C8.54065 7.60589 8.54065 7.6056 8.54065 7.6056Z" fill="#474020"/>
<path d="M6.64949 10.4435C5.45356 10.4435 4.25764 10.4438 3.06171 10.4435C2.85678 10.4435 2.84409 10.4308 2.84261 10.2266C2.84143 10.0294 2.84763 9.83229 2.84113 9.63543C2.83611 9.49031 2.89104 9.4374 3.03927 9.43799C3.97918 9.44272 4.91909 9.44006 5.85929 9.44006C7.30621 9.44006 8.75314 9.44006 10.1998 9.44006C10.4519 9.44006 10.4558 9.44331 10.4561 9.69396C10.4564 9.87633 10.4576 10.0584 10.4552 10.2408C10.4528 10.4282 10.4392 10.4423 10.2517 10.4426C9.14942 10.4435 8.0471 10.4432 6.94448 10.4432C6.84645 10.4432 6.74782 10.4432 6.64949 10.4435Z" fill="#474020"/>
</g>
<defs>
<clipPath id="clip0_819_594">
<rect width="18" height="18" fill="white"/>
</clipPath>
</defs>
</svg>
