<svg width="225" height="115" viewBox="0 0 225 115" fill="none" xmlns="http://www.w3.org/2000/svg">
<path d="M131.495 96.0536C130.294 95.6232 127.675 94.6314 125.675 93.8503C123.674 93.0692 121.926 92.43 121.789 92.43C121.652 92.43 121.183 92.8512 120.747 93.3668C119.576 94.7477 118.356 95.3146 116.554 95.3146C114.483 95.3146 112.685 94.2779 111.784 92.5646C111.585 92.1855 111.327 92.1269 110.058 92.1736C109.16 92.2065 108.25 92.0948 107.774 91.8943C106.637 91.4144 105.435 90.2734 104.971 89.2341C104.62 88.4484 104.488 88.3485 103.919 88.4328C102.691 88.615 100.74 87.8458 99.6577 86.7515C98.6767 85.7607 97.936 84.0528 97.936 82.7818C97.936 82.4127 97.7619 82.236 97.304 82.1408C96.9568 82.0684 96.1961 81.7012 95.614 81.3258C94.1996 80.4128 93.3391 78.7159 93.3391 76.8396C93.3391 75.2929 93.5159 74.8286 95.0011 72.4651L96.0945 70.7261L93.5141 68.1126C92.0943 66.6749 90.8803 65.5 90.815 65.5018C90.7497 65.5037 90.1277 66.3883 89.4323 67.4688C88.1521 69.4569 87.3243 70.119 86.5056 69.8094C86.2816 69.7252 83.7012 68.3424 80.7709 66.7362C76.3463 64.3123 75.3952 63.7006 75.1622 63.1328C74.9355 62.5797 74.9437 62.3205 75.2039 61.7784C75.3807 61.4094 79.8696 54.2108 85.18 45.7814C95.4698 29.4465 95.3755 29.5747 96.741 30.1965C98.159 30.8421 106.836 36.3475 107.419 36.9711C108.196 37.8017 108.206 38.1936 107.482 39.3813C107.17 39.8923 106.913 40.4143 106.91 40.5425C106.907 40.6698 107.869 41.2705 109.05 41.8776L111.196 42.9802H113.876H116.556L117.452 42.0754C118.661 40.8548 120.07 40.0544 121.798 39.6075C123.002 39.2962 124.38 39.2486 130.297 39.3182L137.359 39.4006L143.051 41.0745C146.182 41.9949 148.923 42.7485 149.142 42.7476C149.361 42.7467 150.138 42.46 150.866 42.1093L152.192 41.472L151.269 39.9628C150.761 39.1332 150.346 38.2724 150.346 38.0508C150.346 37.8292 150.631 37.3466 150.978 36.9775C151.556 36.364 160.253 30.8467 161.67 30.1947C163.021 29.5729 162.937 29.4584 173.255 45.829C178.585 54.2859 183.073 61.4881 183.228 61.8334C183.45 62.326 183.451 62.6072 183.233 63.1392C183.003 63.6997 182.032 64.3233 177.627 66.7372C174.697 68.3434 172.116 69.7261 171.892 69.8104C171.093 70.1116 170.244 69.4505 169.015 67.5714C168.217 66.3507 167.705 65.772 167.521 65.8819C167.367 65.9743 165.777 67.0851 163.987 68.3498L160.733 70.6492L161.326 71.803C162.538 74.1629 162.175 77.0575 160.416 79.0776C159.328 80.3249 157.555 81.2809 156.322 81.2864C155.595 81.2891 155.395 81.4503 154.252 82.9668C153.419 84.0711 152.54 84.9237 151.681 85.4621C150.756 86.0409 149.979 86.822 149.017 88.137C147.4 90.3476 147.148 90.5857 145.563 91.3879C144.707 91.8219 143.831 92.0445 142.618 92.1369L140.892 92.2688L139.976 93.6314C138.951 95.1543 137.82 96.016 136.195 96.5105C134.605 96.9913 133.929 96.9263 131.495 96.0536ZM135.831 92.7606C136.576 92.3164 137.586 90.8247 137.319 90.5628C137.214 90.4593 135.48 89.4218 133.468 88.2588C131.456 87.0958 129.675 85.9649 129.511 85.7469C128.798 84.8001 129.379 83.2937 130.558 83.0318C131.349 82.8569 131.603 82.9787 136.925 86.072C139.228 87.4117 141.113 88.3531 141.633 88.4227C143.113 88.6233 144.087 88.3009 145.1 87.278L146.038 86.3312L145.293 86.0152C144.884 85.8413 142.028 84.1068 138.946 82.1609C134.91 79.6115 133.274 78.4531 133.096 78.0163C132.715 77.0877 133.047 76.1985 133.932 75.7727C134.923 75.2956 134.728 75.2013 141.324 79.3633C147.282 83.1224 147.894 83.3541 149.574 82.4878C150.52 82.0007 151.84 80.5062 151.63 80.1618C151.565 80.0556 148.253 77.9961 144.269 75.5841C136.453 70.8534 136.198 70.6373 136.774 69.2335C136.93 68.8534 137.353 68.4313 137.738 68.2701C138.629 67.8974 138.389 67.7756 146.918 72.9385C155.559 78.1692 155.134 77.9586 156.307 77.6033C158.117 77.0557 159.041 74.781 158.065 73.2764C157.853 72.9486 151.166 68.2967 143.204 62.9378L128.729 53.1952H126.803C124.917 53.1952 124.864 53.2108 124.221 53.9516C123.86 54.3674 123.226 55.2437 122.811 55.8985C121.964 57.2373 120.79 58.1439 119.428 58.5138C118.171 58.8554 108.938 58.8481 108.191 58.5047C107.393 58.1375 106.984 57.0715 107.338 56.2849C107.488 55.9534 109.053 53.6595 110.814 51.1879L114.018 46.6944H112.295C110.644 46.6944 110.453 46.6349 107.768 45.275C105.941 44.3501 104.863 43.9252 104.672 44.0562C104.51 44.1661 101.792 48.2786 98.6314 53.1943L92.884 62.1319L95.5641 64.8462L98.2442 67.5604L99.2388 66.9716C100.685 66.1154 102.553 65.9917 104.07 66.6502C104.716 66.9313 105.472 67.4056 105.751 67.7042L106.256 68.2472L107.249 67.4807C110.051 65.3205 114.028 66.1969 115.622 69.3259C116.089 70.2435 116.204 70.7902 116.184 71.9999L116.157 73.5209L117.448 74.2288C118.975 75.0667 119.994 76.53 120.175 78.1445C120.275 79.0492 120.38 79.2232 120.895 79.3478C123.49 79.975 125.151 82.0831 125.166 84.768C125.173 86.0574 125.064 86.474 124.413 87.6352C123.994 88.3824 123.71 89.0537 123.783 89.1278C124.151 89.4987 133.786 93.0957 134.449 93.1095C134.871 93.1195 135.493 92.962 135.831 92.7606ZM117.66 91.3274C117.916 91.104 118.91 89.6754 119.869 88.1535C121.842 85.0198 122.035 84.2103 121.006 83.3926C120.401 82.9109 119.426 82.768 118.941 83.0895C118.799 83.1829 117.791 84.6297 116.7 86.3037C114.485 89.702 114.282 90.4273 115.321 91.2523C116.061 91.8402 117.035 91.8714 117.66 91.3274ZM110.887 88.1929C111.197 87.9053 112.305 86.3119 113.348 84.6526C114.392 82.9924 115.592 81.1756 116.015 80.6142C116.836 79.5263 116.944 79.0044 116.517 78.1949C116.003 77.2196 115.122 76.8753 114.125 77.2617C113.907 77.3469 112.45 79.3816 110.889 81.7855C107.794 86.5482 107.592 87.1141 108.614 88.1462C109.317 88.8559 110.152 88.8733 110.887 88.1929ZM104.684 84.3404C104.896 84.105 106.773 81.3166 108.858 78.1436C111.54 74.0612 112.648 72.1812 112.648 71.7124C112.648 70.2746 110.567 69.3552 109.527 70.3333C109.28 70.5658 108.655 71.4276 108.138 72.249C105.85 75.8826 103.129 80.1014 102.404 81.138C101.937 81.8056 101.614 82.5446 101.614 82.9484C101.613 84.3944 103.763 85.3687 104.684 84.3404ZM99.5897 78.4421C100.189 77.9632 103.912 72.1519 103.912 71.6959C103.912 70.9853 103.451 70.3525 102.703 70.0347C101.428 69.4926 100.91 69.8928 99.0176 72.8872C96.4037 77.0227 96.4118 76.9971 97.4581 78.0547C98.1699 78.7727 98.9904 78.9219 99.5897 78.4421ZM161.748 65.4679C163.946 63.9185 165.744 62.6108 165.744 62.5623C165.744 62.4286 154.676 45.232 154.368 44.8858C154.152 44.6432 153.776 44.743 152.421 45.3986C149.616 46.7558 149.575 46.753 142.574 44.7476L136.407 42.9802L129.756 42.9811C125.929 42.982 122.746 43.0837 122.258 43.2201C120.894 43.6029 119.521 45.1203 115.964 50.177L112.617 54.936L115.655 55.0011C119.166 55.0762 119.076 55.1192 120.702 52.5991C121.703 51.046 122.835 50.1394 124.276 49.7356C125.425 49.4132 128.362 49.4105 129.504 49.731C129.989 49.8674 136.492 54.0881 143.985 59.131C151.465 64.1658 157.622 68.2847 157.668 68.2847C157.715 68.2857 159.551 67.0174 161.748 65.4679ZM95.0827 52.0506C99.8091 44.7173 103.652 38.6964 103.622 38.6707C102.88 38.0334 96.6757 34.4144 96.5542 34.5481C96.168 34.9748 79.5469 61.5184 79.5469 61.7079C79.5469 61.9799 85.7784 65.4679 86.1792 65.4203C86.3496 65.4002 90.3571 59.3838 95.0827 52.0506ZM174.764 64.196C176.061 63.479 177.556 62.642 178.087 62.3361L179.051 61.7803L170.529 48.2594C165.841 40.8227 161.931 34.6534 161.838 34.5499C161.608 34.2908 154.714 38.614 154.883 38.9116C155.937 40.7586 172.048 65.5 172.198 65.5C172.312 65.5 173.467 64.913 174.764 64.196Z" fill="#0081FF"/>
<path d="M160.858 105.563L159.31 103.988L160.922 102.373L162.533 100.758L164.08 102.321L165.628 103.884L164.017 105.511L162.406 107.139L160.858 105.563Z" fill="#E5F5FE"/>
<path d="M167.295 105.563L165.747 103.988L167.358 102.373L168.969 100.758L170.517 102.321L172.064 103.884L170.453 105.511L168.842 107.139L167.295 105.563Z" fill="#E5F5FE"/>
<path d="M160.856 99.0599L159.31 97.4867L160.92 95.8741L162.529 94.2615L164.138 95.8741L165.748 97.4867L167.359 95.8722L168.97 94.2578L170.515 95.8182L172.06 97.3786L170.462 99.0059L168.863 100.633L167.305 99.0718L165.748 97.5105L164.19 99.0709C163.333 99.9289 162.581 100.631 162.517 100.631C162.454 100.633 161.706 99.9253 160.856 99.0599Z" fill="#E5F5FE"/>
<path d="M1.54769 52.3049L0 50.7298L1.61116 49.1154L3.22231 47.5L4.76999 49.0632L6.31769 50.6263L4.70653 52.2536L3.09538 53.8809L1.54769 52.3049Z" fill="#E5F5FE"/>
<path d="M7.98422 52.3049L6.43652 50.7298L8.04769 49.1154L9.65885 47.5L11.2065 49.0632L12.7533 50.6263L11.1431 52.2536L9.53191 53.8809L7.98422 52.3049Z" fill="#E5F5FE"/>
<path d="M1.54588 45.8021L0 44.2289L1.60934 42.6163L3.21868 41.0037L4.82803 42.6163L6.43737 44.2289L8.04853 42.6144L9.65969 41L11.2047 42.5604L12.7496 44.1208L11.1512 45.7481L9.55269 47.3753L7.99504 45.814L6.43737 44.2527L4.87971 45.8131C4.02291 46.6711 3.27036 47.3735 3.2069 47.3735C3.14343 47.3753 2.39543 46.6675 1.54588 45.8021Z" fill="#E5F5FE"/>
<path d="M123.872 27.2212C119.866 27.2212 116.605 23.9292 116.605 19.8816C116.605 15.8341 119.865 12.542 123.872 12.542C127.88 12.542 131.139 15.8341 131.139 19.8816C131.139 23.9292 127.879 27.2212 123.872 27.2212ZM123.872 17.1216C122.365 17.1216 121.139 18.3597 121.139 19.8825C121.139 21.4054 122.365 22.6435 123.872 22.6435C125.38 22.6435 126.606 21.4054 126.606 19.8825C126.606 18.3597 125.379 17.1216 123.872 17.1216Z" fill="#E5F5FE"/>
<path d="M175.477 88.1488C176.427 88.1488 177.196 87.3714 177.196 86.4125C177.196 85.4536 176.427 84.6763 175.477 84.6763C174.528 84.6763 173.758 85.4536 173.758 86.4125C173.758 87.3714 174.528 88.1488 175.477 88.1488Z" fill="#E5F5FE"/>
<path d="M145.739 98.7209C146.47 98.7209 147.062 98.1228 147.062 97.3849C147.062 96.647 146.47 96.0488 145.739 96.0488C145.009 96.0488 144.417 96.647 144.417 97.3849C144.417 98.1228 145.009 98.7209 145.739 98.7209Z" fill="#E5F5FE"/>
<path d="M35.4874 66.6282C36.8879 66.6282 38.0233 65.4815 38.0233 64.0669C38.0233 62.6523 36.8879 61.5056 35.4874 61.5056C34.0868 61.5056 32.9514 62.6523 32.9514 64.0669C32.9514 65.4815 34.0868 66.6282 35.4874 66.6282Z" fill="#E5F5FE"/>
<path d="M108.621 104.461C109.571 104.461 110.34 103.684 110.34 102.725C110.34 101.766 109.571 100.989 108.621 100.989C107.672 100.989 106.902 101.766 106.902 102.725C106.902 103.684 107.672 104.461 108.621 104.461Z" fill="#E5F5FE"/>
<path d="M84.6724 10.501C86.1396 10.501 87.329 9.29969 87.329 7.81786C87.329 6.33603 86.1396 5.13477 84.6724 5.13477C83.2052 5.13477 82.0159 6.33603 82.0159 7.81786C82.0159 9.29969 83.2052 10.501 84.6724 10.501Z" fill="#E5F5FE"/>
<path d="M220.008 59C218.394 59 216.809 58.2231 215.846 56.7852C214.31 54.4943 214.924 51.3816 217.215 49.8458C219.506 48.31 222.619 48.9241 224.154 51.2149C225.69 53.5058 225.075 56.6186 222.785 58.155C221.932 58.726 220.965 59 220.008 59ZM218.952 52.4368C218.09 53.0147 217.86 54.1854 218.437 55.0472C219.015 55.9091 220.186 56.14 221.048 55.5621C221.91 54.9842 222.141 53.8135 221.563 52.9517C220.985 52.0905 219.814 51.8596 218.952 52.4368Z" fill="#E5F5FE"/>
<path d="M191.755 69.6042C192.485 69.6042 193.078 69.0061 193.078 68.2682C193.078 67.5303 192.485 66.9321 191.755 66.9321C191.024 66.9321 190.432 67.5303 190.432 68.2682C190.432 69.0061 191.024 69.6042 191.755 69.6042Z" fill="#E5F5FE"/>
<path d="M179.299 46.7923C180.7 46.7923 181.835 45.6455 181.835 44.231C181.835 42.8164 180.7 41.6697 179.299 41.6697C177.898 41.6697 176.763 42.8164 176.763 44.231C176.763 45.6455 177.898 46.7923 179.299 46.7923Z" fill="#E5F5FE"/>
<path d="M149.299 5.12259C150.7 5.12259 151.835 3.97586 151.835 2.56129C151.835 1.14673 150.7 0 149.299 0C147.898 0 146.763 1.14673 146.763 2.56129C146.763 3.97586 147.898 5.12259 149.299 5.12259Z" fill="#E5F5FE"/>
<path d="M169.799 18.5711C170.748 18.5711 171.518 17.7938 171.518 16.8349C171.518 15.876 170.748 15.0986 169.799 15.0986C168.849 15.0986 168.08 15.876 168.08 16.8349C168.08 17.7938 168.849 18.5711 169.799 18.5711Z" fill="#E5F5FE"/>
<path d="M211.657 27.3663C213.124 27.3663 214.313 26.165 214.313 24.6831C214.313 23.2013 213.124 22 211.657 22C210.189 22 209 23.2013 209 24.6831C209 26.165 210.189 27.3663 211.657 27.3663Z" fill="#E5F5FE"/>
<path d="M34.6566 98.3663C36.1237 98.3663 37.3131 97.165 37.3131 95.6831C37.3131 94.2013 36.1237 93 34.6566 93C33.1894 93 32 94.2013 32 95.6831C32 97.165 33.1894 98.3663 34.6566 98.3663Z" fill="#E5F5FE"/>
<path d="M138.447 114.165C139.848 114.165 140.983 113.018 140.983 111.604C140.983 110.189 139.848 109.042 138.447 109.042C137.047 109.042 135.911 110.189 135.911 111.604C135.911 113.018 137.047 114.165 138.447 114.165Z" fill="#E5F5FE"/>
<path d="M72.9174 91.996C73.8668 91.996 74.6365 91.2187 74.6365 90.2597C74.6365 89.3008 73.8668 88.5234 72.9174 88.5234C71.968 88.5234 71.1984 89.3008 71.1984 90.2597C71.1984 91.2187 71.968 91.996 72.9174 91.996Z" fill="#E5F5FE"/>
<path d="M77.818 113.733C79.2852 113.733 80.4746 112.532 80.4746 111.05C80.4746 109.568 79.2852 108.367 77.818 108.367C76.3509 108.367 75.1615 109.568 75.1615 111.05C75.1615 112.532 76.3509 113.733 77.818 113.733Z" fill="#E5F5FE"/>
</svg>
