<svg width="17" height="15" viewBox="0 0 11 10" fill="none" xmlns="http://www.w3.org/2000/svg">
<g opacity="0.4" clip-path="url(#clip0_715_467)">
<path opacity="0.75" d="M5.48525 9.99966C3.88285 9.99966 2.28062 9.99966 0.678554 9.99966C0.256328 9.99966 0.00122233 9.74886 0.000976562 9.33469C0.000976562 8.23901 0.000976562 7.14342 0.000976562 6.0479C0.000976562 5.57289 0.447534 5.26555 0.87271 5.44904C1.15387 5.57049 1.25438 5.80309 1.25438 6.0891C1.25438 6.78618 1.25438 7.48333 1.25438 8.18056C1.25438 8.33603 1.26102 8.49197 1.25242 8.64648C1.24554 8.76433 1.29223 8.79499 1.4075 8.79475C2.55621 8.7914 3.70467 8.7926 4.85338 8.7926C6.43104 8.7926 8.00878 8.7926 9.58659 8.7926C9.76035 8.7926 9.7606 8.7926 9.7606 8.62084C9.7606 7.75633 9.75863 6.89181 9.7606 6.0273C9.7606 5.65409 10.043 5.38605 10.4121 5.39754C10.7233 5.40737 10.9951 5.66344 10.9961 5.9667C11 7.12194 11 8.27726 10.9961 9.43266C10.9961 9.75197 10.7213 9.99822 10.3765 9.99894C9.4565 10.0012 8.53676 10.0012 7.61727 9.99894L5.48525 9.99966Z" fill="#051441"/>
<path opacity="0.75" d="M4.80262 2.36934C4.80262 1.81838 4.80089 1.27007 4.80262 0.720319C4.80458 0.303512 5.10097 0.00168532 5.50575 8.51715e-06C5.89554 -0.00190783 6.21282 0.319798 6.21331 0.72295C6.21462 1.83427 6.21462 2.9456 6.21331 4.05692C6.21331 4.22628 6.21331 4.22652 6.39026 4.22676C6.73753 4.22676 7.08505 4.2282 7.43231 4.22676C7.57781 4.22676 7.70069 4.26461 7.77147 4.3966C7.84225 4.52859 7.79605 4.6486 7.71175 4.76262C7.08636 5.59959 6.46178 6.43727 5.83803 7.27568C5.8164 7.30474 5.79445 7.33349 5.77216 7.36191C5.61758 7.55906 5.39589 7.56337 5.2391 7.36526C5.09434 7.18225 4.95868 6.99277 4.81933 6.80593L3.32826 4.80478C3.31131 4.78226 3.29484 4.75951 3.27911 4.73675C3.19948 4.62752 3.17687 4.51062 3.24249 4.38869C3.30811 4.26676 3.41821 4.2282 3.54945 4.22796C3.90901 4.22796 4.26857 4.22796 4.62837 4.22796C4.80188 4.22796 4.80212 4.22796 4.80212 4.05549C4.80262 3.49288 4.80278 2.93083 4.80262 2.36934Z" fill="#051441"/>
</g>
<defs>
<clipPath id="clip0_715_467">
<rect width="11" height="10" fill="white"/>
</clipPath>
</defs>
</svg>
