<svg width="17" height="15" viewBox="0 0 17 15" fill="none" xmlns="http://www.w3.org/2000/svg">
<g clip-path="url(#clip0_885_545)">
<path opacity="0.75" d="M8.47667 14.9996C6.00024 14.9996 3.52406 14.9996 1.04814 14.9996C0.39561 14.9996 0.00135638 14.6234 0.000976562 14.0022C0.000976562 12.3586 0.000976562 10.7152 0.000976562 9.07198C0.000976562 8.35945 0.691112 7.89845 1.3482 8.17369C1.78272 8.35586 1.93806 8.70476 1.93806 9.13378C1.93806 10.1794 1.93806 11.2251 1.93806 12.271C1.93806 12.5042 1.94832 12.7381 1.93502 12.9698C1.92439 13.1466 1.99655 13.1926 2.17469 13.1923C3.94997 13.1872 5.72487 13.189 7.50015 13.189C9.93834 13.189 12.3767 13.189 14.8151 13.189C15.0836 13.189 15.084 13.189 15.084 12.9314C15.084 11.6346 15.081 10.3378 15.084 9.04107C15.084 8.48126 15.5204 8.07919 16.0909 8.09644C16.5718 8.11117 16.9919 8.49528 16.9934 8.95017C16.9995 10.683 16.9995 12.416 16.9934 14.1491C16.9934 14.6281 16.5687 14.9975 16.0359 14.9985C14.6141 15.0019 13.1926 15.0019 11.7716 14.9985L8.47667 14.9996Z" fill="#051441"/>
<path opacity="0.75" d="M7.42258 3.554C7.42258 2.72758 7.41992 1.90511 7.42258 1.08048C7.42562 0.455268 7.88368 0.00252799 8.50924 1.27757e-05C9.11164 -0.00286175 9.60199 0.479697 9.60275 1.08443C9.60477 2.75141 9.60477 4.4184 9.60275 6.08538C9.60275 6.33942 9.60275 6.33978 9.87622 6.34014C10.4129 6.34014 10.95 6.3423 11.4867 6.34014C11.7115 6.34014 11.9014 6.39691 12.0108 6.5949C12.1202 6.79288 12.0488 6.9729 11.9185 7.14393C10.952 8.39938 9.98675 9.65591 9.02276 10.9135C8.98934 10.9571 8.95541 11.0002 8.92097 11.0429C8.68206 11.3386 8.33947 11.3451 8.09714 11.0479C7.87343 10.7734 7.66376 10.4892 7.44841 10.2089L5.14404 7.20717C5.11783 7.1734 5.09238 7.13926 5.06807 7.10512C4.94501 6.94128 4.91007 6.76593 5.01148 6.58304C5.11289 6.40015 5.28305 6.3423 5.48587 6.34194C6.04155 6.34194 6.59723 6.34194 7.15329 6.34194C7.42144 6.34194 7.42182 6.34194 7.42182 6.08323C7.42258 5.23932 7.42283 4.39624 7.42258 3.554Z" fill="#051441"/>
</g>
<defs>
<clipPath id="clip0_885_545">
<rect width="17" height="15" fill="white"/>
</clipPath>
</defs>
</svg>
