<svg width="24" height="21" viewBox="0 0 24 21" fill="none" xmlns="http://www.w3.org/2000/svg">
<rect x="0.5" y="6.5" width="20" height="9" stroke="#E4E4E4"/>
<path d="M3.768 14H2.616V8.4H5.064C5.66667 8.4 6.14133 8.55733 6.488 8.872C6.84 9.18133 7.016 9.58667 7.016 10.088C7.016 10.5947 6.84 11.0027 6.488 11.312C6.14133 11.6267 5.66667 11.784 5.064 11.784H3.768V14ZM3.768 9.408V10.8H4.984C5.26133 10.8 5.47733 10.7413 5.632 10.624C5.78667 10.5013 5.864 10.328 5.864 10.104C5.864 9.88 5.78667 9.70933 5.632 9.592C5.47733 9.46933 5.26133 9.408 4.984 9.408H3.768ZM9.98544 14H7.88944V8.4H9.98544C10.8921 8.4 11.6308 8.66133 12.2014 9.184C12.7721 9.70667 13.0574 10.3787 13.0574 11.2C13.0574 12.0267 12.7721 12.7013 12.2014 13.224C11.6361 13.7413 10.8974 14 9.98544 14ZM9.04144 9.432V12.968H9.88944C10.5134 12.968 10.9988 12.8133 11.3454 12.504C11.6974 12.1893 11.8734 11.7547 11.8734 11.2C11.8734 10.6453 11.6974 10.2133 11.3454 9.904C10.9988 9.58933 10.5134 9.432 9.88944 9.432H9.04144ZM15.2524 14H14.1004V8.4H18.2044V9.432H15.2524V10.568H17.5324V11.584H15.2524V14Z" fill="#E4E4E4"/>
<g clip-path="url(#clip0_794_999)">
<path d="M23.9972 10.0406C23.9978 7.95893 23.9982 5.87706 23.9998 3.7954C24 3.62213 23.9486 3.47582 23.8256 3.35132C22.779 2.29115 21.734 1.22933 20.689 0.16771C20.5785 0.0553547 20.4488 0 20.2903 0C16.6716 0.00123468 13.0528 0.000823118 9.4339 0.0010289C9.1516 0.0010289 9.00246 0.150836 9.00084 0.43687C8.99922 0.728459 9.00044 1.01984 9.00044 1.31143C9.00044 3.27292 9.00044 3.37231 9.00084 5.46591H9.97725C9.97745 3.361 9.97745 3.18917 9.97765 1.18632C9.97765 0.997207 10.0155 0.958727 10.2033 0.958727C10.7632 0.958315 11.323 0.958521 11.8829 0.958521C14.4023 0.958521 16.9216 0.958315 19.441 0.958521C19.6622 0.958521 19.6873 0.984449 19.6873 1.2036C19.6877 2.08846 19.6875 2.97331 19.6883 3.85816C19.6885 4.20428 19.8295 4.34915 20.1669 4.34935C21.0168 4.34997 21.8667 4.34956 22.7166 4.34956C22.7774 4.34956 22.8381 4.34935 22.8988 4.35038C22.9876 4.35182 23.0368 4.3973 23.0412 4.48867C23.0431 4.52633 23.0424 4.56419 23.0424 4.60185C23.0424 7.13293 23.0424 9.66382 23.0424 12.1949C23.0424 14.7157 23.0424 17.2363 23.0424 19.7571C23.0424 19.805 23.0435 19.8532 23.0406 19.9011C23.0362 19.976 22.9943 20.0221 22.9233 20.0353C22.8806 20.0431 22.836 20.0431 22.7923 20.0431C18.6034 20.0429 14.4145 20.0429 10.2257 20.0427C10.0066 20.0427 9.97704 20.0114 9.97704 19.7861C9.97704 18.4014 9.97725 18.4354 9.97684 17.0509H9.00084C9.00044 18.6959 9.00044 18.9225 9.00125 20.5675C9.00145 20.8463 9.15423 21 9.42763 21C14.1427 21.0002 18.858 21.0002 23.573 21C23.8305 21 23.981 20.8467 23.9818 20.5851C23.9893 18.4113 23.9745 16.2374 23.9938 14.0636C24.0055 12.7225 23.9968 11.3817 23.9972 10.0406Z" fill="#E4E4E4"/>
</g>
<defs>
<clipPath id="clip0_794_999">
<rect width="15" height="21" fill="white" transform="translate(9)"/>
</clipPath>
</defs>
</svg>
