<svg width="12" height="12" viewBox="0 0 12 12" fill="none" xmlns="http://www.w3.org/2000/svg">
<path d="M3.6021 11.1612H2.04084C1.76479 11.1612 1.50005 11.0542 1.30485 10.8636C1.10966 10.6731 1 10.4146 1 10.1451V6.58868C1 6.31919 1.10966 6.06073 1.30485 5.87017C1.50005 5.67961 1.76479 5.57256 2.04084 5.57256H3.6021M7.24504 4.55643V2.52419C7.24504 2.11995 7.08055 1.73226 6.78776 1.44642C6.49496 1.16058 6.09785 1 5.68378 1L3.6021 5.57256V11.1612H9.47244C9.72345 11.164 9.96703 11.0781 10.1583 10.9194C10.3496 10.7607 10.4756 10.5398 10.5133 10.2975L11.2315 5.72497C11.2541 5.57934 11.244 5.43064 11.202 5.28919C11.1599 5.14773 11.0868 5.01689 10.9878 4.90573C10.8888 4.79458 10.7662 4.70577 10.6286 4.64545C10.4909 4.58514 10.3415 4.55476 10.1906 4.55643H7.24504Z" stroke="#468AFC" stroke-width="1.3" stroke-linecap="round" stroke-linejoin="round"/>
</svg>
