<svg width="280" height="133" viewBox="0 0 280 133" fill="none" xmlns="http://www.w3.org/2000/svg">
<path d="M134.307 92.0833L134.528 90.303L140.661 91.0647L146.794 91.8262L146.573 93.6065L146.352 95.3859L140.219 94.6243L134.086 93.8627L134.307 92.0833Z" fill="#0081FF"/>
<path d="M150.079 94.0418L150.3 92.2615L154.68 92.8055L159.062 93.3495L158.841 95.1298L158.62 96.9092L154.238 96.3651L149.858 95.8212L150.079 94.0418Z" fill="#0081FF"/>
<path d="M138.504 58.2878L138.725 56.5076L150.991 58.0308L163.258 59.5542L163.037 61.3344L162.816 63.1137L150.549 61.5904L138.283 60.0671L138.504 58.2878Z" fill="#0081FF"/>
<path d="M139.388 51.1695L139.609 49.3901L145.742 50.1518L151.875 50.9134L151.654 52.6928L151.433 54.4721L145.3 53.7105L139.167 52.9488L139.388 51.1695Z" fill="#0081FF"/>
<path d="M155.159 53.128L155.38 51.3486L159.761 51.8926L164.142 52.4367L163.921 54.2161L163.7 55.9954L159.319 55.4513L154.938 54.9073L155.159 53.128Z" fill="#0081FF"/>
<path d="M84.5006 81.4416L83.2131 79.7493L84.9406 78.3932L86.6681 77.0361L87.957 78.717L89.2459 80.3978L87.5169 81.7663L85.788 83.1347L84.5006 81.4416Z" fill="#E5F5FE"/>
<path d="M90.6344 82.2033L89.3469 80.511L91.0744 79.1549L92.8019 77.7978L94.0908 79.4787L95.3797 81.1595L93.6507 82.528L91.9217 83.8964L90.6344 82.2033Z" fill="#E5F5FE"/>
<path d="M85.2725 75.2119L83.9865 73.5217L85.712 72.167L87.4375 70.8124L88.7793 72.5479L90.121 74.2834L91.8485 72.9273L93.5759 71.5711L94.8625 73.249L96.1491 74.9269L94.4323 76.2969L92.7154 77.6668L91.4168 75.9865L90.1182 74.3063L88.4482 75.617C87.5296 76.3377 86.7289 76.9216 86.6684 76.9141C86.6079 76.9066 85.9792 76.1407 85.2725 75.2119Z" fill="#E5F5FE"/>
<path d="M250.405 50.5761L249.117 48.8838L250.845 47.5277L252.572 46.1706L253.861 47.8515L255.15 49.5323L253.421 50.9008L251.692 52.2692L250.405 50.5761Z" fill="#E5F5FE"/>
<path d="M256.539 51.3378L255.251 49.6456L256.979 48.2894L258.706 46.9324L259.995 48.6132L261.284 50.2941L259.555 51.6625L257.826 53.031L256.539 51.3378Z" fill="#E5F5FE"/>
<path d="M251.177 44.3465L249.891 42.6562L251.616 41.3015L253.342 39.9469L254.683 41.6824L256.025 43.418L257.753 42.0618L259.48 40.7056L260.767 42.3835L262.053 44.0614L260.336 45.4314L258.62 46.8014L257.321 45.1211L256.022 43.4408L254.352 44.7515C253.434 45.4722 252.633 46.0562 252.573 46.0486C252.512 46.0411 251.883 45.2753 251.177 44.3465Z" fill="#E5F5FE"/>
<path d="M151.636 90.7729C151.072 90.7028 150.523 90.5232 150.002 90.2403C148.463 89.4015 147.612 88.0146 147.54 86.2292L147.539 86.2077C147.533 86.0466 147.526 85.8791 147.508 85.8252C147.454 85.8007 147.278 85.7788 147.121 85.7594C144.023 85.3746 140.924 84.9897 137.826 84.6051L131.254 83.7889C131.103 83.7701 130.946 83.7507 130.887 83.7576C130.859 83.8076 130.818 83.9512 130.778 84.0906C130.097 86.441 128.033 87.8194 125.64 87.5223C125.64 87.5223 125.64 87.5223 125.639 87.5222C125.577 87.5145 125.515 87.5059 125.452 87.4954C124.38 87.3239 123.403 86.734 122.7 85.8342C121.999 84.9347 121.635 83.8043 121.676 82.652C121.681 82.5074 121.674 82.5004 121.455 82.4073L121.445 82.4034C119.277 81.4793 118.115 79.8276 117.992 77.4941C117.912 75.9704 118.528 74.4629 119.682 73.358C120.832 72.2562 122.344 71.7224 123.831 71.8918C125.218 72.0499 126.513 71.7759 127.791 71.0525C128.236 70.8005 128.686 70.5383 129.122 70.2851C130.347 69.573 131.612 68.8365 132.922 68.2249C134.173 67.64 135.546 67.4335 137 67.6106C137.125 67.6261 137.25 67.6416 137.374 67.6571C137.887 67.7207 138.399 67.787 138.911 67.8523C139.422 67.9185 139.933 67.9838 140.445 68.0473C141.261 68.1487 141.932 68.2257 142.554 68.2904C142.614 68.2971 142.675 68.3037 142.734 68.3111C144.433 68.522 145.945 69.2078 147.355 70.4084C148.178 71.1084 149.023 71.8129 149.839 72.4934C150.685 73.1989 151.559 73.9275 152.412 74.6545C153.628 75.6892 155.057 76.1811 156.295 76.5264C157.032 76.7319 157.773 76.9612 158.49 77.183L158.576 77.2097C160.438 77.7857 161.509 79.0716 161.761 81.0317C161.763 81.0435 161.767 81.0557 161.772 81.0678C161.777 81.0845 161.783 81.1004 161.787 81.1169L161.802 81.1686L161.407 84.3457L161.387 84.3868C161.069 85.0262 160.671 85.7493 159.981 86.248C159.112 86.8751 158.16 87.1293 157.151 87.004C157.092 86.9967 157.034 86.9885 156.974 86.9784C156.956 86.9753 156.938 86.9731 156.922 86.971C156.771 86.9524 156.74 86.9485 156.676 87.1748C156.005 89.5379 153.887 91.0515 151.636 90.7729ZM152.532 83.4778C151.054 83.2944 149.799 84.2735 149.612 85.7559C149.522 86.4629 149.705 87.1546 150.126 87.7041C150.543 88.2495 151.152 88.5968 151.839 88.6821L151.852 88.6837C153.276 88.8534 154.536 87.857 154.72 86.4161C154.907 84.9515 153.953 83.6615 152.547 83.4798L152.532 83.4778ZM126.624 80.2587C125.207 80.0828 123.949 81.0696 123.76 82.5055C123.664 83.2366 123.837 83.9388 124.248 84.4807C124.651 85.0137 125.257 85.3562 125.955 85.4464L125.971 85.4484C127.434 85.6301 128.677 84.6637 128.863 83.2007C129.049 81.7377 128.072 80.4457 126.639 80.2597L126.624 80.2587ZM152.721 81.4041C152.944 81.4318 153.167 81.4764 153.385 81.5374C154.909 81.9618 155.969 82.9603 156.538 84.5054C156.555 84.5502 156.568 84.5974 156.582 84.6445C156.627 84.8051 156.639 84.8084 156.671 84.8159C156.848 84.861 157.021 84.895 157.185 84.9154C158.553 85.0853 159.379 84.411 159.572 82.9658C159.578 82.9184 159.577 82.8916 159.575 82.8789C159.562 82.8737 159.533 82.863 159.473 82.8555L159.459 82.8537C159.177 82.8232 158.917 82.7927 158.666 82.7615C158.379 82.7259 158.113 82.6902 157.851 82.6523C157.169 82.5534 156.77 82.0984 156.832 81.4931C156.864 81.1773 157.008 80.9234 157.248 80.7591C157.475 80.6045 157.775 80.5412 158.118 80.5767C158.355 80.6007 158.603 80.6289 158.879 80.6631C159.119 80.6929 159.36 80.7246 159.6 80.7571C159.6 80.7571 159.613 80.7587 159.614 80.7589C159.613 80.7525 159.611 80.7469 159.609 80.7395C159.362 79.9596 158.857 79.4621 158.065 79.2194C157.825 79.146 157.586 79.0709 157.346 78.9956C156.67 78.7834 155.97 78.5628 155.275 78.3892C154.857 78.2847 154.453 78.1392 154.062 77.999C153.467 77.7851 152.905 77.5826 152.287 77.5059L152.236 77.4996C150.334 77.2866 148.329 77.0483 145.734 76.726C144.488 76.5712 143.242 76.4138 141.996 76.2573C140.836 76.1115 139.677 75.9648 138.516 75.8207L138.258 75.7923C136.882 75.6213 135.507 75.4497 134.13 75.2779C132.754 75.1061 131.379 74.9344 130.002 74.7635C127.506 74.4535 125.476 74.205 123.613 73.9799C122.081 73.7949 120.566 74.854 120.164 76.3901C119.66 78.3195 120.746 79.8816 122.079 80.4276C122.146 80.4546 122.198 80.4708 122.236 80.4755C122.272 80.4801 122.313 80.4851 122.419 80.3281C123.507 78.7064 125.053 77.9682 126.888 78.1934C128.68 78.416 129.964 79.4405 130.609 81.1581C130.746 81.5235 130.895 81.6372 131.297 81.6872C134.084 82.0261 136.896 82.3718 139.662 82.7153C142.341 83.0479 145.051 83.388 147.718 83.7264C148.047 83.7673 148.187 83.7026 148.369 83.4242C149.332 81.9642 151 81.1903 152.721 81.4041ZM130.75 72.7377C131.435 72.8227 131.988 72.895 132.492 72.9647L132.508 72.9667C132.737 72.9952 132.859 72.9417 133.009 72.7483C133.381 72.2688 133.766 71.7875 134.139 71.3223C134.477 70.9002 134.827 70.4635 135.165 70.0306C135.253 69.9176 135.352 69.8212 135.447 69.7279C135.472 69.7042 135.496 69.6796 135.519 69.6557C135.292 69.6765 135.061 69.7129 134.817 69.7673C134.161 69.913 133.489 70.1912 132.699 70.6438C131.768 71.1776 130.816 71.7107 129.897 72.2264C129.698 72.338 129.5 72.4488 129.301 72.5604C129.437 72.5773 129.573 72.5933 129.708 72.6101C130.056 72.6524 130.403 72.6946 130.75 72.7377ZM141.478 70.2157C141.205 70.1818 140.93 70.1513 140.657 70.12C140.435 70.0952 140.215 70.0705 139.993 70.0439C138.645 69.8818 137.539 70.3369 136.707 71.3963C136.425 71.7559 136.133 72.1179 135.852 72.4679C135.646 72.7238 135.44 72.9798 135.236 73.2377C135.22 73.2571 135.205 73.2748 135.188 73.2924C135.215 73.2931 135.243 73.2948 135.272 73.2983C138.066 73.648 140.859 73.9957 143.652 74.3426C145.679 74.5943 147.706 74.845 149.732 75.0958C148.404 73.9829 147.04 72.8398 145.691 71.7217C144.944 71.1014 144.087 70.6939 143.073 70.4744C142.616 70.3758 142.125 70.2961 141.478 70.2157Z" fill="#0081FF"/>
<path d="M161.15 84.2657C160.815 84.937 160.447 85.5816 159.826 86.0302C158.979 86.6413 158.04 86.8865 157.013 86.7153C156.677 86.6593 156.525 86.7296 156.42 87.1005C155.602 90.0013 152.644 91.3784 150.126 90.0064C148.664 89.2093 147.869 87.9265 147.801 86.2172C147.775 85.5761 147.782 85.5743 147.152 85.4961C141.863 84.8384 136.573 84.1815 131.284 83.5255C130.687 83.4514 130.687 83.4523 130.524 84.0173C129.86 86.3101 127.83 87.6074 125.491 87.234C123.411 86.9018 121.855 84.9187 121.935 82.6603C121.946 82.3241 121.774 82.2564 121.544 82.1583C119.5 81.288 118.369 79.7318 118.25 77.4782C118.091 74.4507 120.835 71.8166 123.797 72.1542C125.275 72.3225 126.62 72.0147 127.914 71.2827C129.608 70.3233 131.263 69.2886 133.027 68.4644C134.275 67.8808 135.602 67.7062 136.965 67.8719C138.817 68.0974 140.667 68.36 142.522 68.5513C144.303 68.735 145.826 69.4543 147.183 70.609C148.86 72.0351 150.565 73.4273 152.24 74.8542C153.407 75.8472 154.779 76.3766 156.22 76.7784C156.983 76.9906 157.739 77.2253 158.495 77.46C160.257 78.0048 161.259 79.2056 161.497 81.0633C161.502 81.1058 161.519 81.1462 161.531 81.1877C161.404 82.2135 161.277 83.2401 161.15 84.2657ZM138.291 75.5266C138.291 75.5283 138.291 75.5292 138.291 75.531C133.409 74.9248 128.529 74.3071 123.645 73.7185C121.958 73.5152 120.333 74.7113 119.912 76.325C119.371 78.3934 120.562 80.095 121.981 80.6757C122.27 80.7945 122.433 80.7774 122.634 80.4789C123.646 78.9715 125.078 78.2405 126.856 78.4596C128.541 78.6662 129.756 79.6331 130.365 81.2563C130.549 81.7433 130.801 81.8967 131.273 81.9544C136.746 82.6197 142.217 83.2982 147.686 83.9916C148.111 84.0453 148.347 83.9392 148.588 83.5736C149.624 82.0015 151.524 81.2967 153.315 81.7961C154.782 82.2046 155.763 83.1594 156.294 84.6018C156.36 84.782 156.365 85.0143 156.606 85.0762C158.307 85.5138 159.581 84.879 159.831 83.0036C159.87 82.7126 159.743 82.621 159.488 82.5939C158.954 82.5356 158.421 82.4711 157.889 82.3935C157.34 82.3137 157.045 81.9813 157.092 81.5239C157.141 81.0461 157.514 80.7852 158.091 80.8444C158.583 80.8948 159.074 80.9575 159.565 81.0247C159.868 81.0658 159.952 80.9587 159.858 80.6628C159.581 79.7874 158.999 79.2341 158.142 78.9707C157.209 78.6848 156.283 78.3729 155.339 78.1362C154.304 77.8768 153.364 77.3636 152.267 77.2407C147.602 76.7149 142.948 76.1049 138.291 75.5266ZM150.407 75.3989C150.4 75.2555 150.28 75.2112 150.2 75.1442C148.754 73.9321 147.308 72.72 145.856 71.516C145.056 70.8527 144.143 70.4346 143.128 70.215C142.103 69.9933 141.062 69.905 140.025 69.7807C138.601 69.6101 137.412 70.0745 136.503 71.2312C136.019 71.849 135.521 72.4564 135.032 73.0719C134.946 73.1805 134.782 73.2867 134.828 73.4269C134.886 73.6052 135.095 73.5438 135.239 73.5617C140.145 74.1753 145.05 74.7844 149.956 75.391C150.102 75.4091 150.253 75.4733 150.407 75.3989ZM154.978 86.4492C155.184 84.8452 154.124 83.4165 152.581 83.2168C150.96 83.0067 149.558 84.0959 149.353 85.723C149.15 87.33 150.244 88.7595 151.82 88.9472C153.391 89.1343 154.776 88.0393 154.978 86.4492ZM125.921 85.7106C127.536 85.92 128.917 84.8522 129.123 83.2349C129.329 81.6194 128.257 80.2034 126.674 79.9978C125.108 79.7945 123.71 80.8852 123.502 82.4719C123.286 84.1155 124.322 85.5031 125.921 85.7106ZM128.611 72.6459C128.619 72.679 128.627 72.7121 128.636 72.7453C129.91 72.9034 131.185 73.0503 132.457 73.2277C132.795 73.2751 133.008 73.1795 133.215 72.9121C133.923 71.9987 134.66 71.1065 135.371 70.1953C135.582 69.9239 135.889 69.7322 136.061 69.3722C135.592 69.3638 135.177 69.4174 134.763 69.5086C133.982 69.6824 133.267 70.0159 132.573 70.4135C131.257 71.1668 129.931 71.9029 128.611 72.6459Z" fill="#0081FF"/>
<path d="M140.634 79.0605C140.36 79.0264 140.084 78.9744 139.817 78.9065C139.277 78.769 138.95 78.2598 139.055 77.7213C139.159 77.1898 139.605 76.8497 140.166 76.8757C140.253 76.8794 140.346 76.8883 140.456 76.9019C140.533 76.9114 140.609 76.9227 140.686 76.9332C140.758 76.9438 140.829 76.9536 140.901 76.9625C140.978 76.9721 141.049 76.9791 141.121 76.9871C141.195 76.9946 141.271 77.0031 141.345 77.0123C141.456 77.0261 141.548 77.0411 141.635 77.0581C142.18 77.1694 142.539 77.6194 142.508 78.151C142.476 78.6968 142.032 79.1093 141.475 79.1105C141.196 79.1124 140.913 79.0951 140.634 79.0605Z" fill="#0081FF"/>
<path d="M140.869 77.2267C141.108 77.2563 141.349 77.2711 141.583 77.3189C142.004 77.4051 142.271 77.7455 142.249 78.1366C142.226 78.524 141.908 78.8445 141.477 78.8462C140.941 78.8482 140.403 78.7823 139.884 78.6492C139.463 78.5417 139.238 78.1582 139.313 77.772C139.39 77.3788 139.722 77.1207 140.155 77.1407C140.394 77.1516 140.631 77.1962 140.869 77.2267Z" fill="#0081FF"/>
<path d="M151.95 87.8324C151.017 87.7166 150.319 86.8175 150.428 85.8687C150.478 85.426 150.721 85.0008 151.091 84.702C151.466 84.4003 151.937 84.2565 152.381 84.309L152.391 84.3102C153.317 84.4252 154.01 85.3283 153.905 86.2836C153.854 86.7388 153.624 87.153 153.256 87.4495C152.887 87.7475 152.414 87.8874 151.958 87.8334L151.95 87.8324Z" fill="#0081FF"/>
<path d="M151.989 87.5703C151.194 87.476 150.595 86.7066 150.687 85.8984C150.777 85.1096 151.567 84.4806 152.35 84.5734C153.139 84.667 153.736 85.4404 153.645 86.2551C153.557 87.0593 152.793 87.6656 151.989 87.5703Z" fill="#0081FF"/>
<path d="M126.089 84.6213C125.634 84.5648 125.209 84.316 124.923 83.9383C124.637 83.5616 124.512 83.1033 124.573 82.6476C124.7 81.6967 125.594 80.9872 126.525 81.0993C126.973 81.1549 127.393 81.4075 127.686 81.7931C127.975 82.1737 128.107 82.6445 128.048 83.0835C127.919 84.0325 127.023 84.7373 126.089 84.6213Z" fill="#0081FF"/>
<path d="M126.122 84.3581C125.319 84.2584 124.725 83.4861 124.832 82.6825C124.941 81.8701 125.7 81.2676 126.495 81.3627C127.273 81.4558 127.895 82.2654 127.789 83.0479C127.68 83.8593 126.918 84.457 126.122 84.3581Z" fill="#0081FF"/>
<path d="M156.919 48.2319C156.355 48.1618 155.805 47.9822 155.285 47.6993C153.746 46.8605 152.894 45.4736 152.823 43.6882L152.822 43.6667C152.816 43.5056 152.809 43.3381 152.791 43.2842C152.737 43.2596 152.561 43.2378 152.404 43.2183C149.306 42.8336 146.207 42.4487 143.109 42.0641L136.537 41.2479C136.385 41.2291 136.229 41.2097 136.17 41.2166C136.142 41.2666 136.101 41.4102 136.06 41.5496C135.38 43.8999 133.315 45.2784 130.923 44.9813C130.923 44.9813 130.923 44.9813 130.922 44.9812C130.86 44.9735 130.798 44.9649 130.735 44.9544C129.662 44.7829 128.685 44.193 127.983 43.2932C127.282 42.3937 126.918 41.2633 126.959 40.111C126.963 39.9664 126.957 39.9594 126.738 39.8663L126.728 39.8623C124.56 38.9383 123.398 37.2866 123.275 34.9531C123.195 33.4294 123.811 31.9219 124.965 30.817C126.115 29.7152 127.627 29.1814 129.113 29.3508C130.501 29.5088 131.796 29.2349 133.074 28.5115C133.519 28.2595 133.969 27.9973 134.405 27.7441C135.63 27.0319 136.895 26.2955 138.204 25.6839C139.456 25.099 140.829 24.8925 142.283 25.0696C142.408 25.085 142.533 25.1006 142.657 25.1161C143.17 25.1797 143.682 25.2459 144.194 25.3113C144.705 25.3775 145.216 25.4427 145.728 25.5063C146.544 25.6077 147.215 25.6847 147.836 25.7494C147.897 25.7561 147.958 25.7627 148.017 25.7701C149.716 25.981 151.227 26.6668 152.638 27.8674C153.461 28.5674 154.305 29.2718 155.122 29.9523C155.968 30.6579 156.842 31.3864 157.695 32.1134C158.911 33.1482 160.339 33.6401 161.578 33.9854C162.314 34.1909 163.055 34.4201 163.773 34.642L163.859 34.6687C165.721 35.2447 166.792 36.5306 167.044 38.4907C167.046 38.5025 167.05 38.5147 167.055 38.5268C167.06 38.5435 167.066 38.5594 167.07 38.5759L167.085 38.6276L166.69 41.8046L166.67 41.8458C166.352 42.4852 165.954 43.2082 165.264 43.707C164.395 44.3341 163.443 44.5883 162.434 44.4629C162.375 44.4556 162.316 44.4475 162.257 44.4374C162.239 44.4343 162.221 44.432 162.204 44.43C162.054 44.4113 162.023 44.4075 161.959 44.6338C161.287 46.9978 159.17 48.5114 156.919 48.2319ZM157.815 40.9377C156.337 40.7542 155.082 41.7334 154.894 43.2158C154.805 43.9227 154.987 44.6145 155.409 45.1639C155.826 45.7093 156.435 46.0567 157.122 46.142L157.135 46.1436C158.559 46.3133 159.819 45.3169 160.003 43.8759C160.19 42.4113 159.236 41.1213 157.83 40.9396L157.815 40.9377ZM131.906 37.7186C130.49 37.5426 129.232 38.5295 129.043 39.9654C128.947 40.6965 129.12 41.3987 129.531 41.9406C129.934 42.4735 130.54 42.816 131.238 42.9062L131.254 42.9083C132.717 43.0899 133.96 42.1235 134.146 40.6606C134.332 39.1976 133.355 37.9056 131.921 37.7195L131.906 37.7186ZM158.004 38.8639C158.227 38.8916 158.45 38.9363 158.668 38.9972C160.192 39.4217 161.252 40.4202 161.821 41.9653C161.837 42.0101 161.851 42.0572 161.864 42.1043C161.909 42.2649 161.922 42.2683 161.954 42.2758C162.13 42.3209 162.303 42.3549 162.468 42.3752C163.836 42.5452 164.662 41.8709 164.855 40.4257C164.861 40.3783 164.86 40.3514 164.858 40.3387C164.845 40.3336 164.816 40.3228 164.755 40.3153L164.741 40.3136C164.459 40.283 164.2 40.2526 163.948 40.2214C163.662 40.1857 163.396 40.1501 163.134 40.1122C162.452 40.0133 162.052 39.5583 162.114 38.953C162.147 38.6372 162.29 38.3833 162.531 38.2189C162.757 38.0644 163.058 38.0011 163.401 38.0366C163.638 38.0606 163.886 38.0888 164.162 38.123C164.402 38.1528 164.643 38.1845 164.883 38.217C164.883 38.217 164.895 38.2186 164.897 38.2188C164.895 38.2123 164.893 38.2067 164.892 38.1994C164.645 37.4194 164.14 36.922 163.348 36.6793C163.108 36.6058 162.869 36.5307 162.629 36.4555C161.953 36.2432 161.253 36.0227 160.557 35.849C160.14 35.7446 159.736 35.5991 159.345 35.4588C158.75 35.245 158.188 35.0425 157.57 34.9658L157.519 34.9594C155.617 34.7464 153.612 34.5081 151.017 34.1858C149.771 34.0311 148.524 33.8736 147.279 33.7172C146.119 33.5713 144.959 33.4247 143.799 33.2806L143.541 33.2521C142.165 33.0812 140.789 32.9095 139.413 32.7377C138.037 32.5659 136.661 32.3942 135.285 32.2233C132.789 31.9133 130.759 31.6648 128.896 31.4397C127.364 31.2548 125.848 32.3139 125.447 33.8499C124.943 35.7794 126.029 37.3415 127.362 37.8875C127.429 37.9145 127.48 37.9307 127.518 37.9354C127.555 37.9399 127.595 37.945 127.702 37.788C128.79 36.1663 130.335 35.428 132.171 35.6533C133.963 35.8758 135.246 36.9003 135.892 38.618C136.029 38.9834 136.177 39.0971 136.58 39.1471C139.366 39.486 142.178 39.8316 144.945 40.1752C147.623 40.5078 150.333 40.8479 153 41.1862C153.33 41.2271 153.469 41.1625 153.652 40.8841C154.615 39.4241 156.283 38.6502 158.004 38.8639ZM136.033 30.1976C136.717 30.2826 137.271 30.3549 137.775 30.4245L137.791 30.4266C138.02 30.455 138.141 30.4015 138.292 30.2081C138.664 29.7287 139.049 29.2473 139.422 28.7822C139.76 28.3601 140.11 27.9233 140.448 27.4904C140.536 27.3775 140.635 27.2811 140.73 27.1877C140.754 27.1641 140.778 27.1395 140.802 27.1156C140.574 27.1364 140.344 27.1728 140.1 27.2271C139.444 27.3729 138.772 27.6511 137.982 28.1036C137.051 28.6374 136.099 29.1706 135.18 29.6863C134.981 29.7979 134.783 29.9087 134.584 30.0203C134.719 30.0371 134.855 30.0531 134.991 30.07C135.338 30.1122 135.686 30.1545 136.033 30.1976ZM146.76 27.6756C146.487 27.6417 146.213 27.6112 145.94 27.5799C145.718 27.5551 145.497 27.5303 145.276 27.5038C143.928 27.3416 142.822 27.7968 141.99 28.8562C141.708 29.2158 141.416 29.5778 141.135 29.9278C140.929 30.1837 140.723 30.4397 140.518 30.6976C140.503 30.717 140.487 30.7347 140.471 30.7523C140.498 30.753 140.526 30.7547 140.555 30.7582C143.348 31.1078 146.142 31.4556 148.935 31.8025C150.962 32.0542 152.988 32.3049 155.014 32.5556C153.687 31.4428 152.323 30.2997 150.974 29.1815C150.226 28.5613 149.37 28.1538 148.356 27.9343C147.898 27.8356 147.407 27.756 146.76 27.6756Z" fill="#468AFC"/>
<path d="M166.432 41.7254C166.098 42.3966 165.729 43.0413 165.109 43.4899C164.262 44.101 163.323 44.3462 162.296 44.1749C161.96 44.119 161.808 44.1892 161.703 44.5602C160.885 47.461 157.927 48.838 155.409 47.4661C153.947 46.6689 153.152 45.3861 153.083 43.6768C153.058 43.0358 153.065 43.034 152.435 42.9558C147.146 42.298 141.856 41.6412 136.567 40.9852C135.97 40.911 135.969 40.9119 135.806 41.477C135.143 43.7698 133.113 45.067 130.774 44.6937C128.693 44.3614 127.138 42.3784 127.217 40.12C127.229 39.7838 127.057 39.716 126.827 39.618C124.783 38.7477 123.651 37.1915 123.533 34.9379C123.374 31.9103 126.118 29.2763 129.08 29.6139C130.557 29.7822 131.903 29.4744 133.197 28.7424C134.891 27.783 136.546 26.7483 138.31 25.9241C139.558 25.3405 140.885 25.1659 142.248 25.3316C144.1 25.5572 145.949 25.8198 147.805 26.011C149.586 26.1947 151.109 26.914 152.466 28.0687C154.143 29.4948 155.847 30.887 157.523 32.3139C158.689 33.3069 160.062 33.8363 161.503 34.2381C162.266 34.4503 163.022 34.685 163.778 34.9197C165.539 35.4645 166.542 36.6652 166.78 38.523C166.785 38.5655 166.802 38.6059 166.814 38.6474C166.687 39.6732 166.56 40.6989 166.432 41.7254ZM143.574 32.9863C143.574 32.988 143.574 32.9889 143.574 32.9907C138.692 32.3844 133.812 31.7668 128.928 31.1781C127.24 30.9749 125.616 32.171 125.195 33.7847C124.654 35.853 125.844 37.5547 127.264 38.1354C127.552 38.2541 127.716 38.237 127.917 37.9386C128.929 36.4312 130.36 35.7002 132.139 35.9192C133.824 36.1258 135.038 37.0927 135.648 38.716C135.832 39.2029 136.084 39.3563 136.556 39.414C142.028 40.0794 147.499 40.7579 152.968 41.4513C153.393 41.505 153.629 41.3989 153.871 41.0332C154.907 39.4612 156.807 38.7563 158.598 39.2558C160.065 39.6643 161.046 40.6191 161.577 42.0614C161.643 42.2416 161.648 42.4739 161.889 42.5359C163.59 42.9734 164.864 42.3387 165.114 40.4632C165.153 40.1722 165.026 40.0807 164.771 40.0536C164.237 39.9953 163.704 39.9308 163.172 39.8532C162.622 39.7733 162.328 39.441 162.375 38.9835C162.423 38.5058 162.797 38.2449 163.374 38.304C163.866 38.3544 164.357 38.4171 164.848 38.4843C165.15 38.5255 165.235 38.4184 165.141 38.1225C164.863 37.247 164.282 36.6937 163.424 36.4304C162.492 36.1445 161.566 35.8326 160.621 35.5959C159.587 35.3364 158.647 34.8233 157.55 34.7004C152.885 34.1746 148.231 33.5646 143.574 32.9863ZM155.689 32.8586C155.683 32.7152 155.563 32.6709 155.482 32.6039C154.037 31.3918 152.591 30.1797 151.139 28.9757C150.339 28.3124 149.426 27.8943 148.411 27.6747C147.385 27.453 146.344 27.3647 145.308 27.2404C143.884 27.0699 142.695 27.5342 141.786 28.6909C141.301 29.3087 140.804 29.916 140.315 30.5316C140.229 30.6402 140.065 30.7464 140.111 30.8866C140.169 31.0649 140.378 31.0035 140.522 31.0214C145.427 31.635 150.332 32.2441 155.238 32.8507C155.384 32.8688 155.535 32.933 155.689 32.8586ZM160.261 43.9089C160.466 42.3049 159.407 40.8761 157.864 40.6765C156.243 40.4663 154.841 41.5555 154.635 43.1827C154.432 44.7896 155.527 46.2192 157.103 46.4069C158.674 46.5939 160.058 45.499 160.261 43.9089ZM131.204 43.1702C132.819 43.3796 134.2 42.3119 134.406 40.6946C134.612 39.0791 133.54 37.6631 131.956 37.4575C130.391 37.2542 128.993 38.3448 128.785 39.9315C128.568 41.5751 129.605 42.9627 131.204 43.1702ZM133.893 30.1056C133.901 30.1387 133.91 30.1718 133.919 30.205C135.192 30.3631 136.468 30.51 137.739 30.6874C138.077 30.7347 138.291 30.6392 138.498 30.3718C139.206 29.4584 139.942 28.5662 140.654 27.655C140.865 27.3836 141.172 27.1919 141.344 26.8319C140.875 26.8235 140.459 26.8771 140.046 26.9683C139.265 27.1421 138.55 27.4756 137.855 27.8732C136.54 28.6265 135.214 29.3626 133.893 30.1056Z" fill="#0081FF"/>
<path d="M145.917 36.5201C145.642 36.486 145.367 36.434 145.1 36.3661C144.56 36.2287 144.233 35.7194 144.338 35.181C144.441 34.6495 144.888 34.3094 145.449 34.3354C145.536 34.3391 145.629 34.348 145.739 34.3616C145.816 34.3712 145.892 34.3825 145.969 34.3929C146.04 34.4035 146.112 34.4133 146.184 34.4222C146.261 34.4318 146.332 34.4388 146.404 34.4469C146.478 34.4543 146.553 34.4628 146.628 34.472C146.739 34.4859 146.831 34.5008 146.918 34.5178C147.463 34.6292 147.822 35.0791 147.791 35.6107C147.759 36.1564 147.315 36.569 146.758 36.5702C146.478 36.572 146.195 36.5547 145.917 36.5201Z" fill="#468AFC"/>
<path d="M146.152 34.6864C146.391 34.716 146.632 34.7308 146.866 34.7786C147.287 34.8648 147.554 35.2052 147.531 35.5963C147.509 35.9837 147.191 36.3041 146.76 36.3058C146.224 36.3078 145.686 36.242 145.167 36.1089C144.746 36.0013 144.52 35.6179 144.596 35.2317C144.672 34.8385 145.005 34.5804 145.438 34.6004C145.676 34.6113 145.914 34.6559 146.152 34.6864Z" fill="#468AFC"/>
<path d="M157.233 45.2925C156.299 45.1766 155.602 44.2775 155.71 43.3287C155.761 42.886 156.003 42.4608 156.374 42.162C156.749 41.8602 157.22 41.7164 157.664 41.769L157.673 41.7701C158.6 41.8852 159.293 42.7882 159.187 43.7436C159.137 44.1988 158.907 44.613 158.539 44.9095C158.17 45.2075 157.697 45.3475 157.24 45.2935L157.233 45.2925V45.2925Z" fill="#468AFC"/>
<path d="M157.272 45.03C156.477 44.9356 155.877 44.1663 155.97 43.3581C156.06 42.5693 156.85 41.9403 157.633 42.0331C158.422 42.1267 159.018 42.9001 158.928 43.7148C158.839 44.519 158.075 45.1252 157.272 45.03Z" fill="#468AFC"/>
<path d="M131.372 42.081C130.917 42.0246 130.492 41.7757 130.205 41.398C129.92 41.0213 129.795 40.563 129.856 40.1073C129.983 39.1564 130.877 38.4469 131.808 38.559C132.256 38.6146 132.676 38.8672 132.969 39.2528C133.257 39.6335 133.389 40.1042 133.33 40.5433C133.202 41.4922 132.306 42.197 131.372 42.081Z" fill="#468AFC"/>
<path d="M131.404 41.8178C130.602 41.7181 130.007 40.9458 130.115 40.1422C130.224 39.3298 130.983 38.7273 131.777 38.8224C132.555 38.9155 133.178 39.7251 133.072 40.5076C132.962 41.319 132.201 41.9167 131.404 41.8178Z" fill="#468AFC"/>
<path d="M193.693 64.9558C189.874 64.4817 187.159 60.9416 187.641 57.0636C188.122 53.1855 191.62 50.417 195.439 50.8912C199.258 51.3655 201.973 54.9054 201.491 58.7835C201.009 62.6616 197.511 65.43 193.693 64.9558ZM194.894 55.2782C193.458 55.0999 192.142 56.1409 191.961 57.6C191.78 59.0591 192.8 60.3904 194.237 60.5689C195.674 60.7473 196.99 59.7061 197.171 58.247C197.352 56.7879 196.33 55.4565 194.894 55.2782Z" fill="#E5F5FE"/>
<path d="M34.1792 59.2547C30.3612 58.7805 27.6459 55.2405 28.1274 51.3624C28.609 47.4843 32.1069 44.7158 35.9258 45.19C39.7448 45.6643 42.4592 49.2042 41.9776 53.0823C41.496 56.9604 37.9973 59.7288 34.1792 59.2547ZM35.381 49.577C33.945 49.3987 32.6287 50.4397 32.4475 51.8989C32.2663 53.358 33.2872 54.6893 34.724 54.8677C36.1609 55.0461 37.4763 54.0049 37.6575 52.5458C37.8387 51.0867 36.817 49.7553 35.381 49.577Z" fill="#E5F5FE"/>
<path d="M184.217 109.354C184.913 109.441 185.549 108.938 185.637 108.231C185.724 107.524 185.231 106.881 184.535 106.794C183.839 106.708 183.203 107.211 183.115 107.918C183.028 108.625 183.521 109.268 184.217 109.354Z" fill="#E5F5FE"/>
<path d="M190.05 85.0305C191.385 85.1963 192.604 84.2319 192.772 82.8766C192.94 81.5212 191.995 80.2881 190.66 80.1224C189.325 79.9566 188.107 80.921 187.939 82.2763C187.77 83.6317 188.716 84.8648 190.05 85.0305Z" fill="#E5F5FE"/>
<path d="M194.323 35.4724C195.657 35.6381 196.876 34.6737 197.044 33.3184C197.212 31.9631 196.267 30.73 194.932 30.5643C193.598 30.3985 192.379 31.3629 192.211 32.7182C192.043 34.0735 192.988 35.3066 194.323 35.4724Z" fill="#E5F5FE"/>
<path d="M101.091 23.1471C101.788 23.2336 102.423 22.7305 102.511 22.0236C102.599 21.3166 102.105 20.6734 101.409 20.587C100.713 20.5005 100.078 21.0035 99.9897 21.7105C99.9019 22.4175 100.395 23.0606 101.091 23.1471Z" fill="#E5F5FE"/>
<path d="M94.9663 49.8191C96.301 49.9849 97.5194 49.0205 97.6877 47.6651C97.856 46.3098 96.9105 45.0767 95.5758 44.9109C94.2411 44.7452 93.0227 45.7096 92.8544 47.0649C92.6861 48.4203 93.6316 49.6534 94.9663 49.8191Z" fill="#E5F5FE"/>
<path d="M90.694 99.3772C92.0287 99.543 93.2471 98.5786 93.4154 97.2232C93.5837 95.8679 92.6382 94.6348 91.3035 94.469C89.9688 94.3033 88.7504 95.2677 88.5821 96.623C88.4138 97.9784 89.3593 99.2115 90.694 99.3772Z" fill="#E5F5FE"/>
<path d="M55.0632 72.7176C56.4614 72.8912 57.7377 71.881 57.914 70.4612C58.0904 69.0414 57.0999 67.7497 55.7017 67.5761C54.3036 67.4025 53.0272 68.4127 52.8509 69.8325C52.6746 71.2523 53.6651 72.544 55.0632 72.7176Z" fill="#E5F5FE"/>
<path d="M7.08973 62.9529C8.48787 63.1266 9.76422 62.1164 9.94053 60.6966C10.1168 59.2768 9.12635 57.9851 7.72821 57.8114C6.33007 57.6378 5.05373 58.648 4.87741 60.0678C4.7011 61.4876 5.69159 62.7793 7.08973 62.9529Z" fill="#E5F5FE"/>
<path d="M224.443 63.7773C225.348 63.8897 226.174 63.236 226.288 62.3172C226.402 61.3985 225.761 60.5626 224.856 60.4503C223.952 60.3379 223.126 60.9916 223.012 61.9104C222.897 62.8291 223.538 63.665 224.443 63.7773Z" fill="#E5F5FE"/>
<path d="M271.873 81.8997C272.778 82.012 273.604 81.3583 273.718 80.4395C273.832 79.5208 273.191 78.6849 272.286 78.5726C271.381 78.4602 270.555 79.1139 270.441 80.0327C270.327 80.9514 270.968 81.7873 271.873 81.8997Z" fill="#E5F5FE"/>
<path d="M210.265 95.6936C211.663 95.8672 212.939 94.857 213.116 93.4373C213.292 92.0175 212.302 90.7258 210.903 90.5522C209.505 90.3785 208.229 91.3887 208.053 92.8085C207.876 94.2283 208.867 95.52 210.265 95.6936Z" fill="#E5F5FE"/>
<path d="M156.925 118.832L112.849 113.359C109.359 112.925 106.85 109.91 107.256 106.636L118.094 19.3574C118.502 16.0834 121.672 13.7728 125.162 14.2062L169.237 19.6796C172.727 20.113 175.236 23.1286 174.829 26.4028L163.991 113.682C163.584 116.954 160.414 119.266 156.925 118.832ZM124.658 18.2584C123.551 18.1208 122.544 18.8541 122.415 19.8939L111.576 107.173C111.447 108.212 112.243 109.169 113.352 109.307L157.428 114.78C158.535 114.918 159.542 114.184 159.671 113.145L170.509 25.8663C170.638 24.8273 169.842 23.8693 168.734 23.7318L124.658 18.2584Z" fill="#468AFC"/>
<path d="M163.336 101.296L110.922 94.7866L110.555 97.7435L162.969 104.252L163.336 101.296Z" fill="#468AFC"/>
<path d="M172.705 25.8492L120.291 19.3403L119.746 23.7273L172.161 30.2362L172.705 25.8492Z" fill="#468AFC"/>
<path d="M163.325 100.842L110.911 94.3328L110.366 98.7197L162.78 105.229L163.325 100.842Z" fill="#468AFC"/>
<path d="M138.892 104.947L133.597 104.29L133.063 108.591L138.358 109.248L138.892 104.947Z" fill="#468AFC"/>
<path d="M129.929 100.599L115.622 98.8228L116.926 88.3274L131.232 90.104L129.929 100.599ZM118.541 96.5125L127.663 97.6453L128.313 92.4143L119.191 91.2815L118.541 96.5125Z" fill="#0081FF"/>
<path d="M128.993 35.677L129.791 39.7254L133.888 40.2173L130.285 42.2275L131.083 46.276L128.057 43.4699L124.454 45.4801L126.188 41.7357L123.162 38.9296L127.259 39.4215L128.993 35.677Z" fill="#0081FF"/>
<path d="M128.993 35.677L129.791 39.7254L133.888 40.2173L130.285 42.2275L131.083 46.276L128.057 43.4699L124.454 45.4801L126.188 41.7357L123.162 38.9296L127.259 39.4215L128.993 35.677Z" fill="#FFD86B"/>
</svg>
