<svg width="19" height="19" viewBox="0 0 19 19" fill="none" xmlns="http://www.w3.org/2000/svg">
<path d="M4.38477 9.35361C4.38477 9.03104 4.64596 8.76914 4.96995 8.76914H8.76938V4.96899C8.76938 4.80843 8.83362 4.66284 8.93921 4.55651C9.04488 4.45017 9.19184 4.38452 9.35458 4.38452H9.64572C9.96974 4.38452 10.2309 4.64643 10.2309 4.96899V8.76914H14.0303C14.2159 8.76914 14.38 8.85478 14.4871 8.98822C14.5684 9.08812 14.6155 9.2152 14.6155 9.35361V9.64621C14.6155 9.96877 14.3544 10.2307 14.0303 10.2307H10.2309V14.0308C10.2309 14.1571 10.1909 14.2734 10.1225 14.3691C10.0168 14.5175 9.84273 14.6153 9.64572 14.6153H9.35458C9.03056 14.6153 8.76938 14.3534 8.76938 14.0308V10.2307H4.96995C4.78583 10.2307 4.6217 10.1458 4.51465 10.0137C4.4333 9.91308 4.38477 9.78534 4.38477 9.64621V9.35361Z" fill="#474020"/>
<path fill-rule="evenodd" clip-rule="evenodd" d="M0 9.5C0 4.2533 4.2533 0 9.5 0C14.7467 0 19 4.2533 19 9.5C19 14.7467 14.7467 19 9.5 19C4.2533 19 0 14.7467 0 9.5ZM9.5 1.46154C5.06115 1.46154 1.46154 5.06043 1.46154 9.5C1.46154 13.9396 5.06115 17.5385 9.5 17.5385C13.9388 17.5385 17.5385 13.9396 17.5385 9.5C17.5385 5.06043 13.9388 1.46154 9.5 1.46154Z" fill="#474020"/>
</svg>
