<svg width="38" height="38" viewBox="0 0 38 38" fill="none" xmlns="http://www.w3.org/2000/svg">
<path d="M25.15 15.087V11H12.85V15.087C12.0816 15.1253 11.3576 15.4488 10.8273 15.9908C10.297 16.5328 10.0009 17.252 10 18V25H12.55V23.8333H11.2V18C11.2005 17.536 11.3904 17.0912 11.7278 16.7631C12.0652 16.4351 12.5228 16.2505 13 16.25H25C25.4772 16.2505 25.9348 16.4351 26.2722 16.7631C26.6097 17.0912 26.7995 17.536 26.8 18V23.8333H25.15V25H28V18C27.9991 17.252 27.703 16.5328 27.1727 15.9908C26.6424 15.4488 25.9184 15.1253 25.15 15.087V15.087ZM23.95 15.0833H14.05V12.1667H23.95V15.0833Z" fill="#474020"/>
<path d="M23.8182 18H25V19.1892H23.8182V18ZM13.4773 20.3784H12V21.5676H13.4773V29H23.5227V21.5676H25V20.3784H13.4773ZM22.3409 27.8108H14.6591V21.5676H22.3409V27.8108Z" fill="#474020"/>
</svg>
