<svg width="20" height="20" viewBox="0 0 20 20" fill="none" xmlns="http://www.w3.org/2000/svg">
<path d="M10 20C8.48807 20.0042 6.99525 19.6621 5.63604 18.9999C5.1386 18.758 4.66198 18.4753 4.21106 18.1549L4.07406 18.0549C2.83389 17.1395 1.81996 15.9522 1.11009 14.5839C0.375832 13.1678 -0.00499267 11.5951 4.94224e-05 9.99996C4.94224e-05 4.47713 4.47721 0 10 0C15.5228 0 20 4.47713 20 9.99996C20.0049 11.5943 19.6245 13.1663 18.8909 14.5819C18.182 15.9494 17.1695 17.1364 15.9309 18.0519C15.4637 18.3939 14.9679 18.695 14.449 18.9519L14.369 18.9919C13.0089 19.6576 11.5142 20.0025 10 20ZM10 14.9999C8.50149 14.997 7.12769 15.834 6.44304 17.1669C8.68441 18.2771 11.3156 18.2771 13.557 17.1669V17.1619C12.8715 15.8304 11.4976 14.9954 10 14.9999ZM10 12.9999C12.1661 13.0028 14.1634 14.1701 15.2289 16.0559L15.2439 16.0429L15.2579 16.0309L15.241 16.0459L15.231 16.0539C17.7599 13.8691 18.6642 10.3423 17.4986 7.21008C16.3329 4.07786 13.3431 2.00031 10.001 2.00031C6.65894 2.00031 3.66906 4.07786 2.50343 7.21008C1.3378 10.3423 2.24208 13.8691 4.77105 16.0539C5.8373 14.169 7.83438 13.0026 10 12.9999ZM10 12C7.79088 12 6.00004 10.2091 6.00004 7.99997C6.00004 5.79084 7.79088 3.99998 10 3.99998C12.2091 3.99998 14 5.79084 14 7.99997C14 9.06083 13.5785 10.0782 12.8284 10.8284C12.0783 11.5785 11.0609 12 10 12ZM10 5.99998C8.89544 5.99998 8.00002 6.8954 8.00002 7.99997C8.00002 9.10453 8.89544 9.99996 10 9.99996C11.1046 9.99996 12 9.10453 12 7.99997C12 6.8954 11.1046 5.99998 10 5.99998Z" fill="white"/>
</svg>
