<svg width="472" height="115" viewBox="0 0 472 115" fill="none" xmlns="http://www.w3.org/2000/svg">
<g clip-path="url(#clip0_757_1513)">
<path d="M171.266 114.734C165.922 114.734 160.812 114.734 156.281 114.734C149.716 114.435 143.522 111.621 138.996 106.883C134.47 102.145 131.962 95.849 131.999 89.3135V37.6666C131.98 37.0588 132.094 36.4541 132.335 35.8951C132.576 35.3362 132.937 34.8362 133.393 34.4311C133.817 34.0128 134.329 33.6929 134.891 33.4932C135.453 33.2935 136.052 33.2193 136.646 33.276C136.646 33.276 161.509 34.8937 169.525 34.8937C179.516 34.8937 196.012 33.6231 212.044 32.3521C223.661 31.4278 235.28 30.5029 243.179 30.2718C256.487 29.7569 269.815 30.3369 283.027 32.0052C284.074 32.121 285.039 32.6258 285.728 33.4184C286.417 34.211 286.781 35.2329 286.745 36.2802V107.686C286.741 108.851 286.283 109.968 285.467 110.804C285.039 111.216 284.526 111.533 283.965 111.732C283.404 111.931 282.808 112.01 282.214 111.961C282.214 111.961 255.261 110.459 245.386 110.459C235.511 110.459 222.152 111.613 208.676 112.769C195.2 113.924 179.747 114.734 171.266 114.734ZM140.712 41.9416V88.968C140.677 93.264 142.315 97.4065 145.282 100.529C148.248 103.652 152.314 105.512 156.628 105.721C161.198 105.721 166.077 105.721 171.266 105.721C179.399 105.721 194.502 104.566 207.978 103.411C221.454 102.255 236.905 101.099 245.386 101.099C253.867 101.099 269.9 101.908 278.032 102.37V39.4C266.453 38.2455 254.81 37.8598 243.179 38.2449C235.744 38.2449 224.359 39.3995 212.509 40.3239C196.361 41.5948 179.516 42.8654 169.292 42.8654C163.367 43.5587 148.38 42.4038 140.712 41.9416Z" fill="#E5F5FE"/>
<path d="M295.808 97.6343C295.234 97.6346 294.664 97.5193 294.135 97.2972C293.606 97.0752 293.127 96.7503 292.727 96.341C292.326 95.9317 292.011 95.4471 291.802 94.915C291.593 94.383 291.494 93.8147 291.51 93.2437V25.0737C279.934 23.8708 268.29 23.4464 256.657 23.8029C249.106 23.8029 237.837 24.9575 225.987 25.8818C209.722 27.1528 192.994 28.4234 182.654 28.4234C174.289 28.4234 150.241 26.9226 149.196 26.8071C148.066 26.7186 147.013 26.2002 146.256 25.3614C145.499 24.5226 145.095 23.4274 145.128 22.3008C145.157 21.7287 145.302 21.1675 145.554 20.652C145.805 20.1365 146.158 19.6766 146.592 19.2994C147.025 18.9222 147.53 18.6352 148.077 18.456C148.624 18.2767 149.202 18.2099 149.776 18.2571C149.776 18.2571 174.638 19.7578 182.654 19.7578C192.645 19.7578 209.257 18.4872 225.289 17.2162C236.907 16.2919 248.525 15.3683 256.308 15.1372C269.616 14.691 282.938 15.2694 296.156 16.8692C297.203 17.0074 298.167 17.5149 298.87 18.2994C299.574 19.0839 299.972 20.0946 299.99 21.1456V93.2437C299.992 94.3692 299.559 95.452 298.781 96.2691C298.002 97.0861 296.938 97.5751 295.808 97.6343Z" fill="#E5F5FE"/>
<path d="M309.981 82.4967C309.406 82.4969 308.838 82.3831 308.309 82.161C307.78 81.939 307.3 81.6141 306.899 81.2048C306.498 80.7955 306.185 80.3095 305.976 79.7774C305.767 79.2453 305.667 78.6771 305.682 78.1061V11.6695C294.103 10.5203 282.46 10.1346 270.83 10.5143C263.278 10.5143 251.893 11.6689 240.043 12.5933C223.895 13.8642 207.166 15.1363 196.826 15.1363C188.462 15.1363 164.414 13.6341 163.368 13.5185C162.335 13.3501 161.395 12.8214 160.717 12.0277C160.04 11.234 159.667 10.2271 159.667 9.1857C159.667 8.1443 160.04 7.13596 160.717 6.34228C161.395 5.5486 162.335 5.02126 163.368 4.85287C163.368 4.85287 188.229 6.47063 196.245 6.47063C206.236 6.47063 222.733 5.1986 238.882 3.92764C250.499 3.0033 262.116 2.07976 269.9 1.84867C283.208 1.3338 296.536 1.91377 309.748 3.58208C310.806 3.69646 311.783 4.19578 312.491 4.98545C313.199 5.77513 313.588 6.79897 313.581 7.85708V78.2217C313.572 79.2389 313.209 80.2219 312.552 81.0017C311.895 81.7814 310.986 82.3094 309.981 82.4967Z" fill="#E5F5FE"/>
<path d="M266.88 49.6837C266.88 49.6837 260.026 49.683 255.263 48.9897H242.25V43.2126H254.565C260.025 43.2126 266.995 43.9066 266.995 43.9066L266.88 49.6837Z" fill="#E5F5FE"/>
<path d="M173.243 99.1358C171.119 99.1587 169.036 98.5518 167.261 97.3926C165.485 96.2334 164.098 94.5737 163.274 92.6267C162.451 90.6797 162.23 88.5331 162.639 86.4604C163.048 84.3877 164.067 82.4829 165.569 80.9893C167.071 79.4958 168.986 78.4818 171.07 78.0754C173.154 77.6689 175.312 77.8884 177.27 78.7073C179.228 79.5261 180.897 80.9063 182.062 82.672C183.228 84.4376 183.838 86.5091 183.815 88.6211C183.785 91.4004 182.661 94.0577 180.685 96.023C178.709 97.9884 176.037 99.1058 173.243 99.1358ZM173.243 83.7679C172.547 83.6601 171.835 83.7034 171.158 83.8948C170.48 84.0862 169.853 84.4209 169.319 84.8764C168.784 85.332 168.354 85.8974 168.059 86.5337C167.765 87.17 167.613 87.8629 167.613 88.5633C167.613 89.2637 167.765 89.9552 168.059 90.5915C168.354 91.2278 168.784 91.7932 169.319 92.2487C169.853 92.7043 170.48 93.039 171.158 93.2304C171.835 93.4218 172.547 93.4665 173.243 93.3587C174.393 93.1806 175.441 92.5991 176.198 91.7198C176.955 90.8405 177.371 89.721 177.371 88.5633C177.371 87.4057 176.955 86.2861 176.198 85.4068C175.441 84.5275 174.393 83.946 173.243 83.7679Z" fill="#E5F5FE"/>
<path d="M220.99 97.6335C218.871 97.6334 216.801 97.0056 215.041 95.8324C213.281 94.6592 211.911 92.9931 211.106 91.044C210.3 89.0949 210.095 86.9512 210.517 84.8861C210.939 82.821 211.969 80.928 213.475 79.4461C214.982 77.9642 216.897 76.9602 218.978 76.5632C221.059 76.1662 223.21 76.3939 225.161 77.2162C227.112 78.0385 228.774 79.4191 229.934 81.1823C231.095 82.9455 231.702 85.0117 231.679 87.1188C231.679 88.5093 231.402 89.8863 230.863 91.1696C230.325 92.4528 229.534 93.6162 228.54 94.5941C227.546 95.5719 226.368 96.3447 225.072 96.8663C223.776 97.3878 222.388 97.6488 220.99 97.6335ZM220.99 82.2655C219.84 82.4436 218.792 83.0252 218.035 83.9044C217.278 84.7837 216.862 85.9033 216.862 87.061C216.862 88.2186 217.278 89.3382 218.035 90.2175C218.792 91.0968 219.84 91.6783 220.99 91.8564C221.686 91.9642 222.397 91.9195 223.075 91.7281C223.752 91.5366 224.379 91.202 224.914 90.7464C225.449 90.2908 225.879 89.7254 226.173 89.0892C226.468 88.4529 226.62 87.7614 226.62 87.061C226.62 86.3606 226.468 85.6676 226.173 85.0314C225.879 84.3951 225.449 83.8311 224.914 83.3755C224.379 82.92 223.752 82.5839 223.075 82.3925C222.397 82.201 221.686 82.1578 220.99 82.2655Z" fill="#E5F5FE"/>
<path d="M188.113 91.1626C187.417 91.1715 186.74 90.9309 186.207 90.4856C185.674 90.0402 185.32 89.4201 185.209 88.7366C185.143 88.3634 185.154 87.9797 185.243 87.6111C185.331 87.2426 185.495 86.896 185.723 86.5928C185.952 86.2896 186.242 86.0374 186.573 85.8495C186.904 85.6616 187.269 85.5428 187.648 85.5011C187.648 85.5011 191.831 84.924 197.175 84.6929C200.573 84.3246 203.999 84.3246 207.397 84.6929C208.152 84.8462 208.816 85.2907 209.241 85.9299C209.665 86.5691 209.817 87.3498 209.663 88.1005C209.509 88.8513 209.061 89.5101 208.418 89.9327C207.775 90.3552 206.99 90.5076 206.235 90.3544C203.301 90.0419 200.341 90.0419 197.406 90.3544C192.411 90.3544 188.578 91.0469 188.462 91.0469L188.113 91.1626Z" fill="#E5F5FE"/>
<path d="M167.55 68.4006V62.6235C167.55 62.6235 184.744 62.6235 192.528 62.6235C200.557 61.3646 208.682 60.8231 216.808 61.0057C217.548 61.2356 218.165 61.7477 218.524 62.4303C218.884 63.1128 218.957 63.9092 218.726 64.6446C218.494 65.3801 217.978 65.9951 217.292 66.3527C216.605 66.7102 215.805 66.7813 215.065 66.5515C207.641 66.7818 200.234 67.3993 192.875 68.4006C184.859 68.285 167.55 68.4006 167.55 68.4006Z" fill="#E5F5FE"/>
<path d="M235.396 91.9707C234.974 91.9672 234.559 91.8724 234.178 91.6929C233.797 91.5133 233.459 91.2536 233.189 90.9312C232.657 90.3913 232.358 89.6662 232.358 88.9101C232.358 88.154 232.657 87.4275 233.189 86.8876C234.49 85.5754 235.308 83.8655 235.512 82.0343C235.512 77.4126 234.816 74.5242 232.028 73.4843C225.42 70.9164 219.013 67.8664 212.859 64.3574C211.985 63.4468 211.169 62.482 210.418 61.4689C208.463 58.7219 206.203 56.2023 203.68 53.9584C193.043 52.437 182.197 53.3456 171.965 56.6156C168.521 57.2405 165.393 59.0101 163.093 61.6339C160.792 64.2578 159.456 67.5804 159.302 71.0584C159.302 71.7516 159.302 72.4454 159.302 73.0231C158.416 76.1778 158.1 79.4638 158.372 82.7282C158.979 84.27 159.933 85.6529 161.16 86.7719C161.438 87.0312 161.66 87.3451 161.811 87.6929C161.962 88.0407 162.041 88.4155 162.041 88.7944C162.041 89.1734 161.962 89.5482 161.811 89.896C161.66 90.2438 161.438 90.5563 161.16 90.8156C160.617 91.3448 159.888 91.6421 159.128 91.6421C158.368 91.6421 157.637 91.3448 157.094 90.8156C154.947 88.9844 153.374 86.5784 152.563 83.8834C151.93 79.7909 152.209 75.6108 153.377 71.6366C153.328 71.0985 153.328 70.557 153.377 70.0189C153.618 65.4736 155.368 61.1361 158.353 57.6861C161.339 54.2362 165.39 51.8684 169.873 50.9542C181.342 47.277 193.519 46.3273 205.423 48.1813C207.631 48.9901 210.186 51.878 214.716 57.6551L216.692 60.0824C222.317 62.9715 228.096 65.5548 234.002 67.8229C236.663 69.0902 238.807 71.227 240.076 73.8764C241.344 76.5258 241.66 79.5277 240.972 82.3812C240.682 85.679 239.196 88.7591 236.79 91.0469C236.418 91.475 235.936 91.794 235.396 91.9707Z" fill="#E5F5FE"/>
<path d="M187.88 66.6678C187.11 66.6678 186.372 66.3633 185.827 65.8216C185.282 65.2798 184.976 64.5453 184.976 63.7793C184.976 62.9705 184.163 57.4245 183.349 52.2251C183.247 51.462 183.443 50.6892 183.897 50.0657C184.351 49.4422 185.028 49.0152 185.789 48.8739C186.171 48.8081 186.562 48.8193 186.94 48.9063C187.318 48.9934 187.674 49.1555 187.988 49.3817C188.302 49.6078 188.567 49.894 188.768 50.2237C188.969 50.5534 189.102 50.9198 189.158 51.3012C189.158 54.5364 190.785 62.0466 190.785 62.8554C190.937 63.3024 190.977 63.7788 190.901 64.2447C190.825 64.7106 190.636 65.152 190.349 65.5282C190.063 65.9044 189.688 66.2039 189.257 66.4026C188.827 66.6014 188.354 66.6929 187.88 66.6678Z" fill="#E5F5FE"/>
</g>
<path d="M95.9091 17.2173L93.5487 14.8185L96.0058 12.3596L98.463 9.89941L100.823 12.2801L103.184 14.6609L100.727 17.1392L98.2694 19.6162L95.9091 17.2173Z" fill="#E5F5FE"/>
<path d="M105.724 17.2173L103.364 14.8185L105.821 12.3596L108.279 9.89941L110.638 12.2801L112.998 14.6609L110.541 17.1392L108.084 19.6162L105.724 17.2173Z" fill="#E5F5FE"/>
<path d="M95.9052 7.31374L93.5476 4.91767L96.002 2.46162L98.4563 0.00557569L100.911 2.46162L103.365 4.91767L105.822 2.45884L108.279 0L110.636 2.37655L112.992 4.7531L110.554 7.23145L108.116 9.70982L105.741 7.33187L103.365 4.95393L100.99 7.33048C99.6828 8.6373 98.5352 9.70703 98.4384 9.70703C98.3416 9.70982 97.2022 8.63172 95.9052 7.31374Z" fill="#E5F5FE"/>
<path d="M340.522 103.66L338.161 101.261L340.619 98.8025L343.076 96.3423L345.436 98.723L347.796 101.104L345.339 103.582L342.882 106.059L340.522 103.66Z" fill="#E5F5FE"/>
<path d="M350.336 103.66L347.976 101.261L350.433 98.8025L352.892 96.3423L355.251 98.723L357.611 101.104L355.154 103.582L352.697 106.059L350.336 103.66Z" fill="#E5F5FE"/>
<path d="M340.518 93.7566L338.16 91.3605L340.615 88.9045L343.069 86.4484L345.523 88.9045L347.978 91.3605L350.435 88.9017L352.892 86.4429L355.248 88.8194L357.604 91.196L355.166 93.6743L352.729 96.1527L350.353 93.7747L347.978 91.3968L345.602 93.7734C344.295 95.0802 343.148 96.1499 343.051 96.1499C342.954 96.1527 341.815 95.0746 340.518 93.7566Z" fill="#E5F5FE"/>
<path d="M22 84.7334C15.9352 84.7334 11 79.7995 11 73.7334C11 67.6673 15.9352 62.7334 22 62.7334C28.0648 62.7334 33 67.6673 33 73.7334C33 79.7995 28.0661 84.7334 22 84.7334ZM22 69.5955C19.719 69.5955 17.8621 71.4511 17.8621 73.7334C17.8621 76.0157 19.719 77.8713 22 77.8713C24.281 77.8713 26.1379 76.0157 26.1379 73.7334C26.1379 71.4511 24.2823 69.5955 22 69.5955Z" fill="#E5F5FE"/>
<path d="M403 56.7334C396.935 56.7334 392 51.7995 392 45.7334C392 39.6673 396.935 34.7334 403 34.7334C409.065 34.7334 414 39.6673 414 45.7334C414 51.7995 409.066 56.7334 403 56.7334ZM403 41.5955C400.719 41.5955 398.862 43.4511 398.862 45.7334C398.862 48.0157 400.719 49.8713 403 49.8713C405.281 49.8713 407.138 48.0157 407.138 45.7334C407.138 43.4511 405.282 41.5955 403 41.5955Z" fill="#E5F5FE"/>
<circle cx="2.5" cy="13.2334" r="2.5" fill="#E5F5FE"/>
<ellipse cx="89" cy="101.233" rx="2" ry="2.5" fill="#E5F5FE"/>
<ellipse cx="350" cy="29.2334" rx="2" ry="2.5" fill="#E5F5FE"/>
<circle cx="469.5" cy="71.2334" r="2.5" fill="#E5F5FE"/>
<circle cx="442.5" cy="16.2334" r="2.5" fill="#E5F5FE"/>
<circle cx="415" cy="92.7334" r="5" fill="#E5F5FE"/>
<circle cx="88.5" cy="55.2334" r="4.5" fill="#E5F5FE"/>
<defs>
<clipPath id="clip0_757_1513">
<rect width="195" height="113" fill="white" transform="translate(132 1.7334)"/>
</clipPath>
</defs>
</svg>
