<svg width="237" height="129" viewBox="0 0 237 129" fill="none" xmlns="http://www.w3.org/2000/svg">
<path d="M51.5958 84.1523L50.242 82.5517L51.8789 81.1334L53.515 79.7142L54.8688 81.3034L56.2235 82.8926L54.5866 84.3231L52.9497 85.7537L51.5958 84.1523Z" fill="#E5F5FE"/>
<path d="M57.6825 84.5995L56.3286 82.999L57.9647 81.5806L59.6008 80.1614L60.9555 81.7506L62.3102 83.3399L60.6733 84.7704L59.0363 86.2009L57.6825 84.5995Z" fill="#E5F5FE"/>
<path d="M52.047 77.9884L50.6947 76.3897L52.3289 74.973L53.9631 73.5562L55.3726 75.1966L56.7822 76.837L58.4182 75.4186L60.0543 74.0003L61.4066 75.5867L62.7589 77.1732L61.134 78.6045L59.5091 80.0359L58.1448 78.4477L56.7805 76.8596L55.1988 78.2304C54.3289 78.9842 53.5683 79.5977 53.5083 79.5933C53.4483 79.5889 52.7909 78.8677 52.047 77.9884Z" fill="#E5F5FE"/>
<path d="M221.241 81.5763L219.887 79.9758L221.524 78.5575L223.16 77.1383L224.514 78.7274L225.868 80.3167L224.231 81.7472L222.594 83.1777L221.241 81.5763Z" fill="#E5F5FE"/>
<path d="M227.327 82.0236L225.973 80.4231L227.609 79.0047L229.246 77.5855L230.6 79.1747L231.955 80.7639L230.318 82.1945L228.681 83.625L227.327 82.0236Z" fill="#E5F5FE"/>
<path d="M221.692 75.4124L220.339 73.8138L221.974 72.397L223.608 70.9803L225.017 72.6207L226.427 74.2611L228.063 72.8427L229.699 71.4243L231.051 73.0108L232.404 74.5972L230.779 76.0286L229.154 77.46L227.79 75.8718L226.425 74.2836L224.844 75.6545C223.974 76.4083 223.213 77.0218 223.153 77.0174C223.093 77.013 222.436 76.2918 221.692 75.4124Z" fill="#E5F5FE"/>
<path fill-rule="evenodd" clip-rule="evenodd" d="M89.5852 61.8061L91.4085 67.4178C90.6126 65.6378 89.9971 63.7595 89.5852 61.8061ZM89.0556 58.0396C89.0071 57.3661 88.9824 56.6859 88.9824 56.0001C88.9824 54.4338 89.111 52.8975 89.3583 51.4013L98.1924 51.4013L89.0556 58.0396Z" fill="#E5F5FE"/>
<path fill-rule="evenodd" clip-rule="evenodd" d="M142.607 61.8061L140.784 67.4178C141.58 65.6378 142.195 63.7595 142.607 61.8061ZM143.137 58.0396C143.185 57.3661 143.21 56.6859 143.21 56.0001C143.21 54.4338 143.081 52.8975 142.834 51.4013L134 51.4013L143.137 58.0396Z" fill="#E5F5FE"/>
<path d="M84.5 46L86.6329 52.5643L93.535 52.5643L87.9511 56.6213L90.084 63.1857L84.5 59.1287L78.916 63.1857L81.0489 56.6213L75.465 52.5643L82.3671 52.5643L84.5 46Z" fill="#E5F5FE"/>
<path d="M64.5 46L66.6329 52.5643L73.535 52.5643L67.9511 56.6213L70.084 63.1857L64.5 59.1287L58.916 63.1857L61.0489 56.6213L55.465 52.5643L62.3671 52.5643L64.5 46Z" fill="#E5F5FE"/>
<path d="M169.5 46L171.633 52.5643L178.535 52.5643L172.951 56.6213L175.084 63.1857L169.5 59.1287L163.916 63.1857L166.049 56.6213L160.465 52.5643L167.367 52.5643L169.5 46Z" fill="#E5F5FE"/>
<path d="M149.5 46L151.633 52.5643L158.535 52.5643L152.951 56.6213L155.084 63.1857L149.5 59.1287L143.916 63.1857L146.049 56.6213L140.465 52.5643L147.367 52.5643L149.5 46Z" fill="#E5F5FE"/>
<path d="M127.068 19.51L125.714 17.9094L127.35 16.4902L128.986 15.0718L130.341 16.6602L131.695 18.2494L130.058 19.68L128.422 21.1105L127.068 19.51Z" fill="#E5F5FE"/>
<path d="M133.154 19.957L131.8 18.3564L133.437 16.9373L135.073 15.5189L136.427 17.1072L137.781 18.6965L136.144 20.127L134.507 21.5575L133.154 19.957Z" fill="#E5F5FE"/>
<path d="M127.519 13.3459L126.167 11.7473L127.801 10.3305L129.435 8.91377L130.844 10.5542L132.254 12.1945L133.89 10.7762L135.525 9.3569L136.878 10.9433L138.23 12.5298L136.605 13.9612L134.98 15.3926L133.616 13.8044L132.252 12.2162L130.67 13.587C129.8 14.3408 129.039 14.9543 128.979 14.9499C128.92 14.9482 128.262 14.2252 127.519 13.3459Z" fill="#E5F5FE"/>
<path d="M113.86 84.9223C110.153 84.6499 106.592 83.6727 103.276 82.017C99.8404 80.3028 96.8199 77.9332 94.2986 74.9753C91.7772 72.0175 89.9036 68.6456 88.7309 64.9543C87.598 61.3899 87.1638 57.6796 87.4394 53.928C87.7151 50.1765 88.687 46.5695 90.3286 43.2089C92.0282 39.7286 94.3746 36.6668 97.3012 34.1093C100.228 31.5517 103.562 29.649 107.211 28.4554C110.734 27.3022 114.4 26.856 118.106 27.1282C121.812 27.4005 125.373 28.3778 128.69 30.0335C132.125 31.7477 135.146 34.1174 137.667 37.0752C140.189 40.033 142.062 43.4049 143.235 47.0962C144.368 50.6606 144.802 54.3709 144.526 58.1225C144.251 61.874 143.279 65.4811 141.637 68.8416C139.938 72.3219 137.591 75.3837 134.665 77.9412C131.738 80.4988 128.404 82.4015 124.755 83.5952C121.232 84.7484 117.566 85.1946 113.86 84.9223ZM117.786 31.4787C111.574 31.0222 105.188 32.9591 100.107 37.3995C89.9452 46.2797 88.8006 61.8588 97.555 72.1287C101.796 77.1041 107.699 80.1053 114.179 80.5813C120.658 81.0574 126.938 78.9504 131.859 74.6492C136.781 70.348 139.758 64.3662 140.24 57.8066C140.722 51.2471 138.651 44.8944 134.411 39.92C130.035 34.7864 123.997 31.9351 117.786 31.4787Z" fill="#468AFC"/>
<path d="M161.442 121.053C160.869 121.011 160.348 120.746 159.973 120.306L133.025 88.6921C132.65 88.2527 132.467 87.6912 132.51 87.1114C132.553 86.5315 132.816 86.0028 133.25 85.6228L142.377 77.6467C142.812 77.2668 143.367 77.0806 143.94 77.1227C144.513 77.1648 145.035 77.4301 145.409 77.8695L172.357 109.483C172.732 109.922 172.915 110.484 172.872 111.064C172.829 111.643 172.566 112.172 172.132 112.552L163.004 120.529C162.569 120.909 162.015 121.095 161.442 121.053ZM136.472 87.4033L161.737 117.042L168.91 110.773L143.645 81.1347L136.472 87.4033Z" fill="#468AFC"/>
<path d="M132.513 78.4925L130.558 80.2002L135.909 86.4766L137.863 84.7689L132.513 78.4925Z" fill="#468AFC"/>
<path d="M137.571 74.0724L135.617 75.78L140.967 82.0564L142.921 80.3487L137.571 74.0724Z" fill="#468AFC"/>
<path d="M162.175 72.4309C158.386 72.1525 155.532 68.8055 155.814 64.9688C156.096 61.1322 159.408 58.2382 163.197 58.5166C166.987 58.7951 169.84 62.1421 169.558 65.9787C169.276 69.8153 165.965 72.7093 162.175 72.4309ZM162.878 62.8576C161.453 62.7529 160.207 63.8412 160.101 65.2847C159.995 66.7282 161.068 67.9869 162.494 68.0917C163.92 68.1964 165.165 67.1081 165.271 65.6646C165.377 64.2211 164.304 62.9623 162.878 62.8576Z" fill="#E5F5FE"/>
<path d="M175.962 36.3927C174.313 36.2715 173.069 34.8309 173.19 33.1809C173.311 31.531 174.752 30.2876 176.402 30.4088C178.052 30.53 179.295 31.9706 179.174 33.6206C179.053 35.2705 177.612 36.5139 175.962 36.3927ZM176.265 32.2756C175.644 32.23 175.102 32.6976 175.057 33.3184C175.011 33.9392 175.479 34.481 176.099 34.5266C176.72 34.5722 177.262 34.1046 177.308 33.4838C177.353 32.863 176.886 32.3212 176.265 32.2756Z" fill="#E5F5FE"/>
<path d="M91.9002 118.055C89.5707 117.884 87.8168 115.826 87.9901 113.468C88.1634 111.109 90.1992 109.33 92.5287 109.502C94.8582 109.673 96.6121 111.73 96.4389 114.089C96.2656 116.447 94.2289 118.226 91.9002 118.055ZM92.3692 111.672C91.222 111.588 90.2188 112.465 90.1335 113.626C90.0482 114.788 90.9124 115.802 92.0596 115.886C93.2068 115.97 94.21 115.093 94.2953 113.932C94.3806 112.771 93.5164 111.757 92.3692 111.672Z" fill="#E5F5FE"/>
<path d="M17.5864 93.5174C15.2569 93.3462 13.503 91.2887 13.6762 88.9303C13.8495 86.5719 15.8853 84.7928 18.2149 84.9639C20.5444 85.1351 22.2983 87.1927 22.125 89.5511C21.9517 91.9095 19.9151 93.6885 17.5864 93.5174ZM18.0554 87.1349C16.9082 87.0506 15.905 87.9272 15.8197 89.0886C15.7343 90.2501 16.5986 91.2639 17.7458 91.3482C18.893 91.4325 19.8961 90.5558 19.9815 89.3944C20.0668 88.233 19.2025 87.2192 18.0554 87.1349Z" fill="#E5F5FE"/>
<path d="M150.221 31.3099C151.119 31.3759 151.901 30.6925 151.967 29.7836C152.034 28.8746 151.361 28.0843 150.463 28.0184C149.565 27.9524 148.783 28.6358 148.716 29.5447C148.649 30.4536 149.323 31.2439 150.221 31.3099Z" fill="#E5F5FE"/>
<path d="M100.597 16.5343C101.495 16.6002 102.277 15.9169 102.344 15.0079C102.411 14.099 101.737 13.3087 100.839 13.2427C99.9413 13.1768 99.1594 13.8601 99.0926 14.7691C99.0258 15.678 99.6995 16.4683 100.597 16.5343Z" fill="#E5F5FE"/>
<path d="M7.38538 45.1637C8.77281 45.2656 9.98121 44.2096 10.0844 42.805C10.1876 41.4004 9.14654 40.1791 7.75911 40.0772C6.37168 39.9752 5.16329 41.0312 5.06008 42.4358C4.95688 43.8404 5.99795 45.0617 7.38538 45.1637Z" fill="#E5F5FE"/>
<path d="M59.6171 107.44C61.0045 107.542 62.2129 106.486 62.3161 105.082C62.4193 103.677 61.3782 102.456 59.9908 102.354C58.6034 102.252 57.395 103.308 57.2918 104.712C57.1886 106.117 58.2296 107.338 59.6171 107.44Z" fill="#E5F5FE"/>
<path d="M181.052 96.5098C182.439 96.6117 183.648 95.5557 183.751 94.151C183.854 92.7464 182.813 91.525 181.426 91.4231C180.038 91.3212 178.83 92.3772 178.727 93.7819C178.623 95.1865 179.664 96.4078 181.052 96.5098Z" fill="#E5F5FE"/>
<path d="M203.371 52.5449C204.759 52.6469 205.967 51.5908 206.07 50.1862C206.174 48.7815 205.133 47.5602 203.745 47.4583C202.358 47.3563 201.149 48.4124 201.046 49.817C200.943 51.2217 201.984 52.443 203.371 52.5449Z" fill="#E5F5FE"/>
<path d="M119.408 113.237C120.795 113.339 122.004 112.283 122.107 110.878C122.21 109.473 121.169 108.252 119.782 108.15C118.394 108.048 117.186 109.104 117.083 110.509C116.979 111.913 118.02 113.135 119.408 113.237Z" fill="#E5F5FE"/>
<path d="M115.5 40L119.204 51.4012H131.192L121.494 58.4476L125.198 69.8488L115.5 62.8024L105.802 69.8488L109.506 58.4476L99.8076 51.4012H111.796L115.5 40Z" fill="#0081FF"/>
<path d="M115.5 40L119.204 51.4012H131.192L121.494 58.4476L125.198 69.8488L115.5 62.8024L105.802 69.8488L109.506 58.4476L99.8076 51.4012H111.796L115.5 40Z" fill="#FFD86B"/>
</svg>
