<svg width="17" height="17" viewBox="0 0 17 17" fill="none" xmlns="http://www.w3.org/2000/svg">
<g clip-path="url(#clip0_801_470)">
<mask id="path-1-inside-1_801_470" fill="white">
<path d="M8.50548 16.9993C9.62579 16.9993 10.7461 17.0013 11.8662 16.9987C12.9415 16.9961 13.862 16.2823 14.0645 15.2799C14.1504 14.8548 14.1994 14.4229 14.2643 13.9941C14.3738 13.2705 14.4833 12.5471 14.592 11.8235C14.7003 11.1032 14.8071 10.3828 14.9153 9.66236C15.0232 8.94534 15.1327 8.22852 15.2407 7.5115C15.3488 6.79448 15.456 6.07726 15.5634 5.36024C15.5934 5.16051 15.6229 4.96079 15.6522 4.76087C15.6884 4.51206 15.5255 4.30577 15.2594 4.26265C15.0311 4.22549 14.7962 4.37871 14.7555 4.61202C14.685 5.01663 14.6284 5.42324 14.5669 5.82924C14.4647 6.50354 14.3631 7.17803 14.2616 7.85252C14.1606 8.52383 14.0603 9.19514 13.9594 9.86625C13.8509 10.5867 13.7416 11.3067 13.6331 12.027C13.5324 12.695 13.4327 13.3629 13.3318 14.0308C13.2774 14.3909 13.2317 14.7526 13.1641 15.1106C13.0611 15.6557 12.5859 16.0595 12.0069 16.1187C11.8989 16.1298 11.7914 16.1328 11.6832 16.1328C9.52988 16.1328 7.37659 16.1326 5.22329 16.1328C4.45059 16.1328 3.92143 15.6984 3.81191 14.9736C3.61256 13.6543 3.41174 12.3353 3.21302 11.0157C3.04884 9.92547 2.88739 8.83484 2.72385 7.74461C2.57057 6.72313 2.41666 5.70166 2.26212 4.68018C2.20641 4.31273 1.82363 4.13626 1.53067 4.34333C1.38807 4.44409 1.32189 4.58241 1.34702 4.75093C1.50743 5.82507 1.67055 6.89881 1.83158 7.97275C2.02319 9.24979 2.21333 10.527 2.40493 11.8041C2.5714 12.914 2.73997 14.0239 2.90603 15.1338C3.06937 16.225 4.00351 16.9975 5.16549 16.9993C5.72397 17.0003 6.28224 16.9995 6.84072 16.9995C7.39564 16.9995 7.95056 16.9995 8.50548 16.9993Z"/>
</mask>
<path d="M8.50548 16.9993C9.62579 16.9993 10.7461 17.0013 11.8662 16.9987C12.9415 16.9961 13.862 16.2823 14.0645 15.2799C14.1504 14.8548 14.1994 14.4229 14.2643 13.9941C14.3738 13.2705 14.4833 12.5471 14.592 11.8235C14.7003 11.1032 14.8071 10.3828 14.9153 9.66236C15.0232 8.94534 15.1327 8.22852 15.2407 7.5115C15.3488 6.79448 15.456 6.07726 15.5634 5.36024C15.5934 5.16051 15.6229 4.96079 15.6522 4.76087C15.6884 4.51206 15.5255 4.30577 15.2594 4.26265C15.0311 4.22549 14.7962 4.37871 14.7555 4.61202C14.685 5.01663 14.6284 5.42324 14.5669 5.82924C14.4647 6.50354 14.3631 7.17803 14.2616 7.85252C14.1606 8.52383 14.0603 9.19514 13.9594 9.86625C13.8509 10.5867 13.7416 11.3067 13.6331 12.027C13.5324 12.695 13.4327 13.3629 13.3318 14.0308C13.2774 14.3909 13.2317 14.7526 13.1641 15.1106C13.0611 15.6557 12.5859 16.0595 12.0069 16.1187C11.8989 16.1298 11.7914 16.1328 11.6832 16.1328C9.52988 16.1328 7.37659 16.1326 5.22329 16.1328C4.45059 16.1328 3.92143 15.6984 3.81191 14.9736C3.61256 13.6543 3.41174 12.3353 3.21302 11.0157C3.04884 9.92547 2.88739 8.83484 2.72385 7.74461C2.57057 6.72313 2.41666 5.70166 2.26212 4.68018C2.20641 4.31273 1.82363 4.13626 1.53067 4.34333C1.38807 4.44409 1.32189 4.58241 1.34702 4.75093C1.50743 5.82507 1.67055 6.89881 1.83158 7.97275C2.02319 9.24979 2.21333 10.527 2.40493 11.8041C2.5714 12.914 2.73997 14.0239 2.90603 15.1338C3.06937 16.225 4.00351 16.9975 5.16549 16.9993C5.72397 17.0003 6.28224 16.9995 6.84072 16.9995C7.39564 16.9995 7.95056 16.9995 8.50548 16.9993Z" fill="black" stroke="#474020" stroke-width="2" mask="url(#path-1-inside-1_801_470)"/>
<mask id="path-2-inside-2_801_470" fill="white">
<path d="M8.50025 3.42791C11.1699 3.42791 13.8394 3.42791 16.5091 3.42772C16.7505 3.42772 16.9254 3.31046 16.983 3.11193C17.0644 2.83093 16.8441 2.56304 16.525 2.56165C15.9946 2.55946 15.4642 2.56105 14.9337 2.56105C10.1319 2.56105 5.3303 2.56145 0.528467 2.56006C0.318854 2.56006 0.149029 2.62008 0.0514468 2.8035C-0.10414 3.09564 0.112592 3.42593 0.460411 3.42712C1.10956 3.42931 1.7585 3.42811 2.40765 3.42811C4.43824 3.42791 6.46924 3.42791 8.50025 3.42791Z"/>
</mask>
<path d="M8.50025 3.42791C11.1699 3.42791 13.8394 3.42791 16.5091 3.42772C16.7505 3.42772 16.9254 3.31046 16.983 3.11193C17.0644 2.83093 16.8441 2.56304 16.525 2.56165C15.9946 2.55946 15.4642 2.56105 14.9337 2.56105C10.1319 2.56105 5.3303 2.56145 0.528467 2.56006C0.318854 2.56006 0.149029 2.62008 0.0514468 2.8035C-0.10414 3.09564 0.112592 3.42593 0.460411 3.42712C1.10956 3.42931 1.7585 3.42811 2.40765 3.42811C4.43824 3.42791 6.46924 3.42791 8.50025 3.42791Z" fill="black" stroke="#474020" stroke-width="2" mask="url(#path-2-inside-2_801_470)"/>
<mask id="path-3-inside-3_801_470" fill="white">
<path d="M8.03715 9.78432C8.03715 10.8905 8.03757 11.9968 8.03694 13.1029C8.03694 13.251 8.06919 13.3875 8.19001 13.49C8.33366 13.6119 8.5014 13.6385 8.6775 13.5701C8.87392 13.4936 8.96062 13.3392 8.96187 13.1445C8.96522 12.6411 8.96334 12.1377 8.96334 11.6341C8.96334 9.9284 8.96334 8.2227 8.96334 6.51699C8.96334 6.48063 8.96418 6.44406 8.9625 6.40769C8.95119 6.13841 8.76252 5.95677 8.49574 5.95777C8.23252 5.95876 8.04092 6.14597 8.0384 6.41584C8.03443 6.80655 8.03715 7.19745 8.03715 7.58835C8.03715 8.32047 8.03715 9.0524 8.03715 9.78432Z"/>
</mask>
<path d="M8.03715 9.78432C8.03715 10.8905 8.03757 11.9968 8.03694 13.1029C8.03694 13.251 8.06919 13.3875 8.19001 13.49C8.33366 13.6119 8.5014 13.6385 8.6775 13.5701C8.87392 13.4936 8.96062 13.3392 8.96187 13.1445C8.96522 12.6411 8.96334 12.1377 8.96334 11.6341C8.96334 9.9284 8.96334 8.2227 8.96334 6.51699C8.96334 6.48063 8.96418 6.44406 8.9625 6.40769C8.95119 6.13841 8.76252 5.95677 8.49574 5.95777C8.23252 5.95876 8.04092 6.14597 8.0384 6.41584C8.03443 6.80655 8.03715 7.19745 8.03715 7.58835C8.03715 8.32047 8.03715 9.0524 8.03715 9.78432Z" fill="black" stroke="#474020" stroke-width="2" mask="url(#path-3-inside-3_801_470)"/>
<mask id="path-4-inside-4_801_470" fill="white">
<path d="M11.6332 5.95774C11.3868 5.95814 11.1916 6.1205 11.1746 6.34447C11.1428 6.7634 11.1181 7.18272 11.0894 7.60184C11.0502 8.17597 11.009 8.74991 10.9709 9.32424C10.9458 9.70043 10.9259 10.077 10.9009 10.4532C10.8699 10.9218 10.8352 11.3902 10.804 11.8588C10.7791 12.2319 10.7556 12.6049 10.7353 12.9781C10.7301 13.0731 10.7075 13.1671 10.7322 13.2643C10.7837 13.4654 10.9581 13.6019 11.1769 13.6025C11.3968 13.6031 11.5756 13.4702 11.6257 13.2696C11.659 13.1363 11.651 12.9996 11.6611 12.8646C11.6973 12.3797 11.7212 11.894 11.7534 11.4089C11.7984 10.7291 11.8483 10.0496 11.8933 9.36995C11.9256 8.88484 11.9517 8.39935 11.9836 7.91405C12.0141 7.44882 12.0464 6.98359 12.0822 6.51856C12.1031 6.24451 12.0055 6.05929 11.7888 5.98278C11.7358 5.9643 11.6814 5.95417 11.6332 5.95774Z"/>
</mask>
<path d="M11.6332 5.95774C11.3868 5.95814 11.1916 6.1205 11.1746 6.34447C11.1428 6.7634 11.1181 7.18272 11.0894 7.60184C11.0502 8.17597 11.009 8.74991 10.9709 9.32424C10.9458 9.70043 10.9259 10.077 10.9009 10.4532C10.8699 10.9218 10.8352 11.3902 10.804 11.8588C10.7791 12.2319 10.7556 12.6049 10.7353 12.9781C10.7301 13.0731 10.7075 13.1671 10.7322 13.2643C10.7837 13.4654 10.9581 13.6019 11.1769 13.6025C11.3968 13.6031 11.5756 13.4702 11.6257 13.2696C11.659 13.1363 11.651 12.9996 11.6611 12.8646C11.6973 12.3797 11.7212 11.894 11.7534 11.4089C11.7984 10.7291 11.8483 10.0496 11.8933 9.36995C11.9256 8.88484 11.9517 8.39935 11.9836 7.91405C12.0141 7.44882 12.0464 6.98359 12.0822 6.51856C12.1031 6.24451 12.0055 6.05929 11.7888 5.98278C11.7358 5.9643 11.6814 5.95417 11.6332 5.95774Z" fill="black" stroke="#474020" stroke-width="2" mask="url(#path-4-inside-4_801_470)"/>
<mask id="path-5-inside-5_801_470" fill="white">
<path d="M4.91478 6.44765C4.94723 6.91467 4.98116 7.39301 5.01341 7.87136C5.03686 8.21774 5.05759 8.56453 5.08041 8.91092C5.1135 9.41251 5.14784 9.91411 5.18114 10.4155C5.20396 10.7621 5.22511 11.1087 5.24815 11.4551C5.28123 11.9567 5.31495 12.4583 5.34929 12.9597C5.35599 13.0586 5.34845 13.158 5.37149 13.2564C5.42593 13.4901 5.63785 13.631 5.89227 13.5998C6.12052 13.5717 6.29579 13.3565 6.2803 13.1296C6.24512 12.6149 6.21308 12.0999 6.17832 11.5852C6.13225 10.9056 6.08325 10.2259 6.03802 9.54626C6.0064 9.07109 5.98043 8.59553 5.94902 8.12017C5.9107 7.53948 5.8728 6.95859 5.82736 6.3783C5.80558 6.10027 5.6056 5.9399 5.32688 5.95878C5.08167 5.97547 4.90933 6.17519 4.91478 6.44765Z"/>
</mask>
<path d="M4.91478 6.44765C4.94723 6.91467 4.98116 7.39301 5.01341 7.87136C5.03686 8.21774 5.05759 8.56453 5.08041 8.91092C5.1135 9.41251 5.14784 9.91411 5.18114 10.4155C5.20396 10.7621 5.22511 11.1087 5.24815 11.4551C5.28123 11.9567 5.31495 12.4583 5.34929 12.9597C5.35599 13.0586 5.34845 13.158 5.37149 13.2564C5.42593 13.4901 5.63785 13.631 5.89227 13.5998C6.12052 13.5717 6.29579 13.3565 6.2803 13.1296C6.24512 12.6149 6.21308 12.0999 6.17832 11.5852C6.13225 10.9056 6.08325 10.2259 6.03802 9.54626C6.0064 9.07109 5.98043 8.59553 5.94902 8.12017C5.9107 7.53948 5.8728 6.95859 5.82736 6.3783C5.80558 6.10027 5.6056 5.9399 5.32688 5.95878C5.08167 5.97547 4.90933 6.17519 4.91478 6.44765Z" fill="black" stroke="#474020" stroke-width="2" mask="url(#path-5-inside-5_801_470)"/>
<mask id="path-6-inside-6_801_470" fill="white">
<path d="M5.56281 1.47325C5.5626 1.69622 5.67714 1.85421 5.85807 1.9196C6.04297 1.98637 6.24693 1.93867 6.37613 1.78406C6.61925 1.49332 6.91346 1.26597 7.2661 1.10639C7.58586 0.961516 7.92362 0.886794 8.2771 0.88421C8.57654 0.882024 8.87704 0.868511 9.17376 0.929123C9.75507 1.04796 10.2342 1.3236 10.6061 1.76479C10.7162 1.89555 10.8578 1.96848 11.0347 1.94364C11.414 1.89038 11.5637 1.50465 11.3195 1.21788C10.8211 0.633015 10.1898 0.235355 9.41143 0.0938592C8.5332 -0.0657214 7.66124 -0.0448547 6.8341 0.337503C6.36797 0.552927 5.97868 0.858773 5.65872 1.24471C5.59443 1.32261 5.56407 1.41323 5.56281 1.47325Z"/>
</mask>
<path d="M5.56281 1.47325C5.5626 1.69622 5.67714 1.85421 5.85807 1.9196C6.04297 1.98637 6.24693 1.93867 6.37613 1.78406C6.61925 1.49332 6.91346 1.26597 7.2661 1.10639C7.58586 0.961516 7.92362 0.886794 8.2771 0.88421C8.57654 0.882024 8.87704 0.868511 9.17376 0.929123C9.75507 1.04796 10.2342 1.3236 10.6061 1.76479C10.7162 1.89555 10.8578 1.96848 11.0347 1.94364C11.414 1.89038 11.5637 1.50465 11.3195 1.21788C10.8211 0.633015 10.1898 0.235355 9.41143 0.0938592C8.5332 -0.0657214 7.66124 -0.0448547 6.8341 0.337503C6.36797 0.552927 5.97868 0.858773 5.65872 1.24471C5.59443 1.32261 5.56407 1.41323 5.56281 1.47325Z" fill="black" stroke="#474020" stroke-width="2" mask="url(#path-6-inside-6_801_470)"/>
</g>
<defs>
<clipPath id="clip0_801_470">
<rect width="17" height="17" fill="white" transform="matrix(-1 0 0 1 17 0)"/>
</clipPath>
</defs>
</svg>
