<svg width="269" height="111" viewBox="0 0 269 111" fill="none" xmlns="http://www.w3.org/2000/svg">
<path d="M72.4917 24.9547L70.9899 23.4284L72.5532 21.8639L74.1166 20.2986L75.6184 21.8133L77.1202 23.3281L75.5568 24.905L73.9934 26.481L72.4917 24.9547Z" fill="#E5F5FE"/>
<path d="M78.7364 24.9547L77.2346 23.4284L78.798 21.8639L80.3622 20.2986L81.8631 21.8133L83.3649 23.3281L81.8016 24.905L80.2382 26.481L78.7364 24.9547Z" fill="#E5F5FE"/>
<path d="M72.489 18.6534L70.989 17.1289L72.5506 15.5662L74.1122 14.0035L75.6738 15.5662L77.2354 17.1289L78.7988 15.5645L80.3622 14L81.8613 15.5121L83.3605 17.0242L81.8094 18.6011L80.2584 20.1779L78.7469 18.665L77.2354 17.152L75.724 18.6641C74.8926 19.4955 74.1624 20.1762 74.1008 20.1762C74.0392 20.1779 73.3143 19.492 72.489 18.6534Z" fill="#E5F5FE"/>
<path d="M233.503 82.9547L232.001 81.4284L233.564 79.8639L235.128 78.2986L236.629 79.8133L238.131 81.3281L236.568 82.905L235.004 84.481L233.503 82.9547Z" fill="#E5F5FE"/>
<path d="M239.747 82.9547L238.246 81.4284L239.809 79.8639L241.373 78.2986L242.874 79.8133L244.376 81.3281L242.813 82.905L241.249 84.481L239.747 82.9547Z" fill="#E5F5FE"/>
<path d="M233.5 76.6534L232 75.1289L233.562 73.5662L235.123 72.0035L236.685 73.5662L238.246 75.1289L239.81 73.5645L241.373 72L242.872 73.5121L244.371 75.0242L242.82 76.6011L241.269 78.1779L239.758 76.665L238.246 75.152L236.735 76.6641C235.904 77.4955 235.173 78.1762 235.112 78.1762C235.05 78.1779 234.325 77.492 233.5 76.6534Z" fill="#E5F5FE"/>
<path d="M176.791 97.924H97.0792C95.3813 97.924 94 96.5308 94 94.8182V42.9652C94 41.2526 95.3813 39.8594 97.0792 39.8594H176.791C178.489 39.8594 179.87 41.2526 179.87 42.9652V94.8182C179.87 96.5308 178.489 97.924 176.791 97.924ZM98.3989 93.4871H175.471V44.2963H98.3989V93.4871Z" fill="#0081FF"/>
<path d="M187.303 87.0493H177.94V82.6124H185.984V33.4215H108.911V42.4177H104.512V32.0904C104.512 30.3778 105.894 28.9846 107.592 28.9846H187.303C189.001 28.9846 190.382 30.3778 190.382 32.0904V83.9434C190.382 85.6561 189.001 87.0493 187.303 87.0493Z" fill="#0081FF"/>
<path d="M153.259 83.7491C152.552 83.7491 151.846 83.6133 151.161 83.3445C149.133 82.5503 147.871 80.9805 147.508 78.8038L147.504 78.7771C147.471 78.5801 147.437 78.3769 147.406 78.313C147.336 78.2909 147.115 78.2909 146.919 78.2909C143.037 78.2909 139.155 78.29 135.273 78.29H127.038C126.848 78.29 126.653 78.29 126.581 78.3077C126.554 78.3734 126.524 78.5562 126.496 78.7328C126.017 81.7161 123.681 83.7207 120.684 83.7207C120.684 83.7207 120.684 83.7207 120.683 83.7207C120.604 83.7207 120.526 83.7189 120.448 83.7163C119.098 83.6692 117.802 83.0951 116.799 82.0986C115.796 81.103 115.174 79.7737 115.048 78.3547C115.032 78.1773 115.023 78.1693 114.738 78.0885L114.725 78.085C111.908 77.2828 110.221 75.4353 109.712 72.5939C109.379 70.7393 109.908 68.7977 111.163 67.2678C112.413 65.7433 114.197 64.8577 116.056 64.84C117.792 64.8231 119.348 64.2889 120.813 63.2081C121.323 62.831 121.84 62.4414 122.339 62.0651C123.74 61.0065 125.189 59.9115 126.711 58.9629C128.166 58.056 129.827 57.5937 131.649 57.5892C131.805 57.5892 131.962 57.5883 132.117 57.5883C132.759 57.5883 133.401 57.591 134.042 57.5937C134.683 57.5963 135.323 57.599 135.965 57.599C136.988 57.599 137.826 57.5919 138.604 57.5759C138.68 57.5741 138.755 57.5732 138.83 57.5732C140.958 57.5732 142.928 58.1838 144.853 59.4403C145.976 60.1733 147.125 60.9071 148.237 61.617C149.388 62.3527 150.579 63.1131 151.742 63.8736C153.401 64.9571 155.239 65.3422 156.819 65.5765C157.759 65.7158 158.709 65.8844 159.628 66.0468L159.739 66.0663C162.125 66.4896 163.644 67.9023 164.253 70.2654C164.257 70.2796 164.265 70.2929 164.272 70.308C164.281 70.3275 164.291 70.347 164.299 70.3666L164.325 70.4278V74.382L164.306 74.4352C164.011 75.2667 163.632 76.2144 162.856 76.9305C161.879 77.8312 160.743 78.2882 159.48 78.2882C159.406 78.2882 159.332 78.2864 159.258 78.2838C159.236 78.2829 159.214 78.282 159.192 78.282C159.004 78.282 158.965 78.282 158.921 78.5686C158.46 81.5715 156.078 83.7491 153.259 83.7491ZM153.245 74.673C151.394 74.673 149.995 76.0644 149.992 77.9093C149.99 78.7887 150.322 79.6095 150.924 80.2182C151.523 80.8234 152.327 81.1562 153.188 81.1562H153.205C154.987 81.1473 156.389 79.7346 156.396 77.9403C156.403 76.1168 155.028 74.6819 153.265 74.6721L153.245 74.673ZM120.787 74.6712C119.011 74.6712 117.611 76.0724 117.597 77.8605C117.591 78.7709 117.912 79.6051 118.503 80.2076C119.082 80.7986 119.882 81.1269 120.757 81.1322H120.777C122.609 81.1322 123.995 79.7595 124.001 77.9377C124.007 76.1159 122.603 74.681 120.806 74.6712H120.787ZM153.162 72.1032C153.441 72.1032 153.724 72.1236 154.002 72.1653C155.947 72.4537 157.409 73.5159 158.347 75.3226C158.374 75.3749 158.398 75.4299 158.422 75.4867C158.502 75.6766 158.519 75.6784 158.558 75.6837C158.783 75.7121 159.002 75.7272 159.208 75.7272C160.923 75.7272 161.838 74.7751 161.855 72.9746C161.856 72.9151 161.849 72.8823 161.845 72.8672C161.828 72.8619 161.79 72.8548 161.716 72.8548H161.698C161.345 72.8601 161.02 72.8628 160.705 72.8628C160.346 72.8628 160.012 72.8592 159.682 72.853C158.826 72.8353 158.263 72.3383 158.248 71.5876C158.239 71.1954 158.378 70.8626 158.649 70.6248C158.904 70.4012 159.265 70.2778 159.695 70.2681C159.99 70.2619 160.301 70.2583 160.647 70.2583C160.948 70.2583 161.249 70.261 161.551 70.2636C161.551 70.2636 161.568 70.2636 161.57 70.2636C161.567 70.2565 161.563 70.2494 161.56 70.2414C161.135 69.323 160.436 68.7906 159.422 68.614C159.115 68.5608 158.808 68.5049 158.501 68.4489C157.633 68.291 156.736 68.1286 155.853 68.0203C155.321 67.9556 154.801 67.8393 154.298 67.7266C153.531 67.5545 152.807 67.393 152.033 67.393H151.969C149.59 67.4214 147.079 67.4338 143.827 67.4338C142.265 67.4338 140.705 67.4311 139.143 67.4285C137.69 67.4258 136.236 67.4231 134.783 67.4231L134.461 67.4285C132.737 67.4285 131.013 67.4276 129.289 67.4267C127.564 67.4258 125.841 67.424 124.117 67.424C120.991 67.424 118.447 67.4276 116.114 67.4364C114.195 67.4435 112.488 68.9707 112.228 70.915C111.901 73.3561 113.481 75.1052 115.21 75.571C115.297 75.5941 115.362 75.6056 115.409 75.6056C115.455 75.6056 115.506 75.6056 115.613 75.3971C116.707 73.2443 118.501 72.1049 120.801 72.1014C123.046 72.1014 124.787 73.1618 125.846 75.1682C126.071 75.595 126.271 75.7112 126.776 75.7112C130.265 75.7024 133.788 75.6979 137.255 75.6979C140.611 75.6979 144.007 75.7024 147.349 75.7104C147.761 75.7104 147.923 75.6092 148.106 75.2409C149.067 73.3056 151.005 72.1032 153.162 72.1032ZM124.726 64.8258C125.584 64.8258 126.278 64.8302 126.91 64.8391H126.93C127.217 64.8391 127.359 64.7557 127.515 64.4948C127.9 63.8506 128.303 63.2019 128.691 62.5754C129.043 62.0066 129.408 61.4182 129.759 60.8352C129.85 60.6835 129.957 60.5504 130.059 60.4208C130.086 60.388 130.112 60.3552 130.138 60.3214C129.86 60.3818 129.581 60.4617 129.289 60.5655C128.502 60.8441 127.715 61.2878 126.81 61.9613C125.742 62.7573 124.651 63.5551 123.594 64.3271C123.366 64.4939 123.138 64.6607 122.91 64.8276C123.08 64.8276 123.25 64.8267 123.42 64.8267C123.856 64.8267 124.291 64.8258 124.726 64.8258ZM137.575 60.1032C137.232 60.1032 136.889 60.1067 136.547 60.1111C136.27 60.1147 135.994 60.1174 135.716 60.1182C134.027 60.1253 132.732 60.8512 131.869 62.2755C131.575 62.76 131.272 63.2471 130.978 63.7192C130.763 64.0644 130.548 64.4096 130.335 64.7566C130.319 64.7823 130.302 64.8071 130.285 64.8311C130.318 64.8276 130.353 64.8249 130.388 64.8249C133.889 64.8284 137.39 64.8293 140.889 64.8293C143.428 64.8293 145.966 64.8284 148.505 64.8276C146.696 63.666 144.838 62.4725 143.003 61.3073C141.985 60.6613 140.866 60.2922 139.581 60.1777C139.004 60.1262 138.385 60.1032 137.575 60.1032Z" fill="#468AFC"/>
<path d="M164 74.3268C163.691 75.2 163.335 76.0465 162.637 76.6899C161.685 77.5684 160.564 78.0112 159.272 77.9571C158.849 77.9393 158.672 78.0494 158.6 78.5197C158.035 82.1996 154.595 84.3373 151.279 83.0382C149.353 82.2839 148.176 80.8331 147.829 78.7486C147.699 77.9668 147.708 77.9633 146.92 77.9633C140.293 77.9624 133.666 77.9624 127.039 77.9633C126.291 77.9633 126.291 77.965 126.176 78.6821C125.708 81.5935 123.403 83.4916 120.459 83.3905C117.842 83.3 115.618 81.1064 115.371 78.3271C115.334 77.9136 115.111 77.8559 114.813 77.7716C112.158 77.0156 110.523 75.2816 110.031 72.5378C109.371 68.8517 112.354 65.2063 116.06 65.1699C117.909 65.1522 119.522 64.5701 121.006 63.475C122.948 62.0419 124.833 60.5218 126.883 59.2431C128.333 58.3389 129.943 57.9218 131.651 57.9183C133.971 57.913 136.293 57.9529 138.612 57.9059C140.838 57.8597 142.827 58.5102 144.678 59.7179C146.965 61.2105 149.282 62.6569 151.568 64.1512C153.159 65.1912 154.934 65.6305 156.773 65.9038C157.746 66.0476 158.715 66.2206 159.683 66.3927C161.941 66.793 163.362 68.1116 163.94 70.3522C163.953 70.4028 163.98 70.4498 164.001 70.4995C164 71.7729 164 73.0499 164 74.3268ZM134.458 67.0956C134.458 67.0973 134.458 67.0991 134.458 67.1009C128.341 67.1009 122.225 67.0867 116.11 67.1089C113.997 67.116 112.176 68.8295 111.903 70.8713C111.552 73.4891 113.282 75.3925 115.122 75.8877C115.497 75.9889 115.696 75.9427 115.898 75.5469C116.915 73.545 118.57 72.4322 120.796 72.4296C122.907 72.4269 124.554 73.4261 125.555 75.3224C125.855 75.8912 126.19 76.0412 126.781 76.0394C133.636 76.0217 140.49 76.0217 147.344 76.0386C147.876 76.0403 148.15 75.8744 148.392 75.389C149.431 73.3054 151.667 72.1518 153.953 72.4908C155.827 72.7686 157.182 73.7899 158.058 75.476C158.167 75.6872 158.209 75.9711 158.515 76.0102C160.681 76.287 162.156 75.3153 162.178 72.9798C162.181 72.6177 162.01 72.5245 161.691 72.5299C161.023 72.5396 160.356 72.5414 159.688 72.5272C158.998 72.513 158.583 72.151 158.571 71.5821C158.558 70.9894 158.979 70.6131 159.7 70.5971C160.315 70.5838 160.93 70.5865 161.545 70.5936C161.925 70.598 162.012 70.4534 161.851 70.1055C161.374 69.0753 160.573 68.4852 159.475 68.2935C158.281 68.085 157.091 67.8445 155.889 67.6981C154.573 67.5375 153.334 67.0521 151.962 67.068C146.128 67.1355 140.292 67.0956 134.458 67.0956ZM149.386 65.0954C149.356 64.9206 149.201 64.8851 149.092 64.815C147.123 63.5496 145.153 62.2842 143.177 61.0303C142.088 60.3391 140.898 59.9655 139.611 59.851C138.313 59.7356 137.014 59.7853 135.717 59.7907C133.933 59.7978 132.537 60.5476 131.593 62.104C131.089 62.9346 130.568 63.7555 130.06 64.5834C129.97 64.7298 129.783 64.8842 129.862 65.0493C129.961 65.2587 130.209 65.1513 130.389 65.1522C136.536 65.1575 142.681 65.1575 148.827 65.1549C149.011 65.1549 149.207 65.2108 149.386 65.0954ZM156.719 77.942C156.727 75.9454 155.2 74.3552 153.266 74.3454C151.235 74.3348 149.671 75.8824 149.667 77.9083C149.664 79.9084 151.232 81.4933 153.206 81.4835C155.173 81.4738 156.712 79.9217 156.719 77.942ZM120.755 81.4596C122.779 81.4702 124.32 79.9519 124.326 77.9384C124.332 75.9267 122.793 74.3552 120.808 74.3437C118.846 74.333 117.288 75.8824 117.274 77.8586C117.26 79.9057 118.751 81.448 120.755 81.4596ZM122.071 65.0395C122.086 65.0785 122.102 65.1185 122.117 65.1575C123.713 65.1575 125.309 65.1433 126.905 65.1673C127.329 65.1735 127.578 65.0244 127.792 64.665C128.527 63.4378 129.299 62.2327 130.036 61.0072C130.255 60.6434 130.604 60.3612 130.762 59.8936C130.182 59.9539 129.677 60.0835 129.182 60.2592C128.244 60.5911 127.413 61.1084 126.617 61.7012C125.11 62.8228 123.587 63.9267 122.071 65.0395Z" fill="#468AFC"/>
<path d="M137.889 71.0703C137.545 71.0703 137.198 71.0482 136.858 71.0056C136.171 70.9195 135.689 70.3445 135.736 69.6692C135.782 69.0018 136.281 68.5173 136.978 68.4641C137.087 68.4561 137.201 68.4517 137.34 68.4517C137.436 68.4517 137.532 68.4534 137.629 68.4552C137.719 68.457 137.809 68.4588 137.898 68.4588C137.994 68.4588 138.084 68.457 138.173 68.4552C138.266 68.4534 138.36 68.4517 138.453 68.4517C138.592 68.4517 138.709 68.4552 138.818 68.4641C139.507 68.5182 140.019 69.0143 140.063 69.67C140.107 70.3436 139.623 70.9168 138.936 71.0038C138.59 71.0482 138.238 71.0703 137.889 71.0703Z" fill="#468AFC"/>
<path d="M137.898 68.787C138.196 68.787 138.497 68.7684 138.793 68.7915C139.325 68.8332 139.707 69.2094 139.739 69.6931C139.77 70.1714 139.427 70.6124 138.895 70.6799C138.233 70.7633 137.56 70.7642 136.899 70.6816C136.363 70.6142 136.026 70.1785 136.06 69.6931C136.095 69.1997 136.465 68.8323 137.004 68.7915C137.3 68.7675 137.599 68.7861 137.898 68.787Z" fill="#468AFC"/>
<path d="M153.195 80.0984C152.026 80.0984 151.027 79.1028 151.016 77.9235C151.011 77.3733 151.244 76.8152 151.656 76.3928C152.073 75.9651 152.632 75.7184 153.188 75.7148H153.199C154.36 75.7148 155.354 76.7167 155.37 77.9022C155.378 78.4684 155.157 79.0105 154.749 79.4303C154.339 79.8518 153.777 80.0949 153.206 80.0976H153.195V80.0984Z" fill="#468AFC"/>
<path d="M153.204 79.7711C152.207 79.7764 151.35 78.9245 151.34 77.92C151.331 76.9404 152.209 76.0486 153.19 76.0432C154.178 76.037 155.032 76.8951 155.045 77.9076C155.059 78.9068 154.209 79.7657 153.204 79.7711Z" fill="#468AFC"/>
<path d="M120.794 80.0983C120.224 80.0983 119.662 79.8578 119.25 79.439C118.84 79.021 118.617 78.478 118.622 77.9101C118.634 76.7254 119.628 75.72 120.794 75.7156C121.354 75.7156 121.912 75.9614 122.331 76.3891C122.746 76.8115 122.981 77.3679 122.975 77.9154C122.964 79.0982 121.965 80.0983 120.794 80.0983Z" fill="#468AFC"/>
<path d="M120.795 79.771C119.79 79.771 118.938 78.9146 118.948 77.9137C118.958 76.9021 119.802 76.0475 120.796 76.044C121.771 76.0404 122.662 76.9376 122.652 77.9128C122.641 78.9226 121.794 79.771 120.795 79.771Z" fill="#468AFC"/>
<path d="M145.656 27H131.344L133.204 14.4113H126L138.5 0L151 14.4113H143.796L145.656 27ZM133.996 24.7031H143.004L141.144 12.1144H145.974L138.5 3.4976L131.026 12.1144H135.857L133.996 24.7031Z" fill="#468AFC"/>
<path opacity="0.3" d="M164.153 20H153.848L155.187 10.675H150L159 0L168 10.675H162.813L164.153 20ZM155.757 18.2986H162.243L160.904 8.97363H164.382L159 2.59081L153.619 8.97363H157.097L155.757 18.2986Z" fill="#468AFC"/>
<path d="M35.0514 76.2247C31.1637 76.2247 28 73.0345 28 69.1123C28 65.1901 31.1637 62 35.0514 62C38.9392 62 42.1029 65.1901 42.1029 69.1123C42.1029 73.0345 38.9401 76.2247 35.0514 76.2247ZM35.0514 66.4369C33.5892 66.4369 32.3989 67.6366 32.3989 69.1123C32.3989 70.588 33.5892 71.7878 35.0514 71.7878C36.5136 71.7878 37.704 70.588 37.704 69.1123C37.704 67.6366 36.5145 66.4369 35.0514 66.4369Z" fill="#E5F5FE"/>
<path d="M72.6681 53.3649C73.5893 53.3649 74.3361 52.6117 74.3361 51.6825C74.3361 50.7533 73.5893 50 72.6681 50C71.7468 50 71 50.7533 71 51.6825C71 52.6117 71.7468 53.3649 72.6681 53.3649Z" fill="#E5F5FE"/>
<path d="M98.4966 106.558C99.2055 106.558 99.7802 105.979 99.7802 105.264C99.7802 104.549 99.2055 103.969 98.4966 103.969C97.7877 103.969 97.213 104.549 97.213 105.264C97.213 105.979 97.7877 106.558 98.4966 106.558Z" fill="#E5F5FE"/>
<path d="M1.2836 60.5894C1.99251 60.5894 2.5672 60.0097 2.5672 59.2947C2.5672 58.5797 1.99251 58 1.2836 58C0.574684 58 0 58.5797 0 59.2947C0 60.0097 0.574684 60.5894 1.2836 60.5894Z" fill="#E5F5FE"/>
<path d="M124.408 110.59C125.767 110.59 126.869 109.479 126.869 108.108C126.869 106.738 125.767 105.626 124.408 105.626C123.049 105.626 121.947 106.738 121.947 108.108C121.947 109.479 123.049 110.59 124.408 110.59Z" fill="#E5F5FE"/>
<path d="M61.4607 93.964C62.8198 93.964 63.9215 92.8528 63.9215 91.482C63.9215 90.1112 62.8198 89 61.4607 89C60.1017 89 59 90.1112 59 91.482C59 92.8528 60.1017 93.964 61.4607 93.964Z" fill="#E5F5FE"/>
<path d="M173.871 108.687C175.23 108.687 176.332 107.576 176.332 106.205C176.332 104.834 175.23 103.723 173.871 103.723C172.512 103.723 171.41 104.834 171.41 106.205C171.41 107.576 172.512 108.687 173.871 108.687Z" fill="#E5F5FE"/>
<path d="M29.6681 35.3649C30.5893 35.3649 31.3362 34.6117 31.3362 33.6825C31.3362 32.7533 30.5893 32 29.6681 32C28.7468 32 28 32.7533 28 33.6825C28 34.6117 28.7468 35.3649 29.6681 35.3649Z" fill="#E5F5FE"/>
<path d="M266.668 52.3649C267.589 52.3649 268.336 51.6117 268.336 50.6825C268.336 49.7533 267.589 49 266.668 49C265.747 49 265 49.7533 265 50.6825C265 51.6117 265.747 52.3649 266.668 52.3649Z" fill="#E5F5FE"/>
<path d="M175.668 20.3649C176.589 20.3649 177.336 19.6117 177.336 18.6825C177.336 17.7533 176.589 17 175.668 17C174.747 17 174 17.7533 174 18.6825C174 19.6117 174.747 20.3649 175.668 20.3649Z" fill="#E5F5FE"/>
<path d="M210.917 39.8851C212.529 39.8851 213.835 38.5676 213.835 36.9425C213.835 35.3174 212.529 34 210.917 34C209.306 34 208 35.3174 208 36.9425C208 38.5676 209.306 39.8851 210.917 39.8851Z" fill="#E5F5FE"/>
<path d="M200.917 64.8851C202.529 64.8851 203.835 63.5676 203.835 61.9425C203.835 60.3174 202.529 59 200.917 59C199.306 59 198 60.3174 198 61.9425C198 63.5676 199.306 64.8851 200.917 64.8851Z" fill="#E5F5FE"/>
<path d="M109.811 48.8752H104.555H103.14V50.3021V55.6042H104.555V50.3021H109.811V48.8752Z" fill="#0081FF"/>
<path d="M103.14 82.7234V88.0255V89.4524H104.555H109.811V88.0255H104.555V82.7234H103.14Z" fill="#0081FF"/>
<path d="M162.845 89.4524H168.102H169.517V88.0255V82.7234H168.102V88.0255H162.845V89.4524Z" fill="#0081FF"/>
<path d="M169.517 55.6042V50.3021V48.8752H168.102H162.845V50.3021H168.102V55.6042H169.517Z" fill="#0081FF"/>
</svg>
