<svg width="22" height="23" viewBox="0 0 22 23" fill="none" xmlns="http://www.w3.org/2000/svg">
<g clip-path="url(#clip0_788_578)">
<path d="M0.45961 17.6477V16.8721V16.8498V16.4792L9.39289 1.41141L10.4229 0.686279H11.6735L21.1193 15.9958L21.5557 17.6477L20.8703 18.6951L18.8937 19.3396H17.4012L17.3205 22.3211L13.6095 18.9988L5.09855 19.3396L1.34694 19.0579L0.45961 18.0505L0.212646 17.1089L0.474916 17.6882" fill="#FFD86C"/>
<path d="M7.7998 19.7131C6.10787 19.7131 4.41553 19.7193 2.72361 19.7098C2.14198 19.7065 1.5827 19.573 1.08091 19.2652C0.294929 18.7822 -0.0546249 18.0707 0.00535778 17.1522C0.0467252 16.5234 0.29493 15.9681 0.603531 15.4326C2.30621 12.4866 4.00848 9.54051 5.71033 6.59427C6.68274 4.91126 7.65722 3.22894 8.63377 1.5473C8.89645 1.09694 9.23814 0.706893 9.67829 0.418081C10.6504 -0.22028 11.738 -0.119051 12.598 0.665989C13.039 1.06925 13.3426 1.56837 13.6363 2.07782C14.5685 3.68839 15.5031 5.29758 16.4402 6.9054C17.4474 8.64075 18.454 10.3753 19.46 12.109C20.1109 13.2301 20.7623 14.3507 21.4142 15.471C21.7092 15.9759 21.921 16.5077 21.9851 17.0931C22.0935 18.0848 21.5466 19.0136 20.6142 19.4156C20.1624 19.6108 19.6755 19.7117 19.1833 19.7123C18.7671 19.7143 18.3505 19.7172 17.934 19.7123C17.8099 19.7102 17.7789 19.7536 17.7797 19.8709C17.7834 20.751 17.7797 21.6311 17.7834 22.5112C17.7834 22.7107 17.7185 22.8636 17.5389 22.9537C17.3594 23.0437 17.1914 22.995 17.0392 22.871C15.9879 22.0254 14.9364 21.18 13.8845 20.3349C13.6558 20.1511 13.4249 19.9697 13.1987 19.7829C13.1242 19.7214 13.0435 19.7131 12.9538 19.7131C11.2354 19.7131 9.51682 19.7131 7.79814 19.7131H7.7998ZM16.9259 20.3932C16.9259 20.0387 16.9259 19.6838 16.9259 19.3293C16.9259 19.0194 17.0859 18.8587 17.3941 18.8582C17.9199 18.8582 18.4461 18.8632 18.9719 18.8562C19.3442 18.8508 19.7165 18.8219 20.0727 18.6971C20.7035 18.4752 21.1714 18.034 21.1147 17.2014C21.0917 16.8818 21.0048 16.57 20.8591 16.2846C20.5571 15.6813 20.1972 15.1107 19.8588 14.5273C18.4247 12.0537 16.9893 9.581 15.5525 7.10909L12.8752 2.4972C12.6332 2.0803 12.3965 1.66134 12.0358 1.32832C11.4041 0.745733 10.6707 0.718051 10.0088 1.25684C9.70725 1.50102 9.48552 1.80966 9.29275 2.13979C8.87907 2.85046 8.46995 3.56567 8.05793 4.27841C7.05684 6.011 6.05547 7.74332 5.05383 9.47537C3.85528 11.5487 2.65673 13.6222 1.45818 15.6958C1.25134 16.0565 1.0412 16.4164 0.93902 16.8254C0.851321 17.1758 0.825672 17.5278 0.960943 17.8707C1.1471 18.3455 1.53512 18.5822 1.99513 18.7235C2.35916 18.8347 2.73602 18.8566 3.11205 18.857C6.47384 18.8587 9.8359 18.8587 13.1982 18.857C13.348 18.85 13.4947 18.9012 13.6074 19C13.6603 19.0462 13.7166 19.088 13.7728 19.1322C14.7839 19.9437 15.7951 20.755 16.8067 21.5662C16.8357 21.5894 16.8626 21.6385 16.9035 21.6191C16.9445 21.5997 16.9242 21.548 16.9246 21.5108C16.9263 21.1373 16.9259 20.7655 16.9259 20.3932Z" fill="#FFD86C"/>
<path d="M11.9361 6.21377C12.2074 6.24393 12.3369 6.42366 12.3386 6.69718C12.3411 7.04756 12.3154 7.39958 12.2844 7.74789C12.2302 8.35775 12.1628 8.96595 12.1011 9.57498C12.0395 10.184 11.9791 10.8005 11.9154 11.4128C11.9007 11.6041 11.8753 11.7945 11.8393 11.983C11.7255 12.5048 11.3491 12.737 10.8278 12.6201C10.4464 12.5346 10.2392 12.2999 10.1962 11.9086C10.072 10.7604 9.9405 9.61216 9.81805 8.46352C9.76386 7.95573 9.7225 7.44669 9.67534 6.93807C9.67534 6.91658 9.67285 6.89468 9.67161 6.8732C9.65052 6.40837 9.82509 6.22203 10.295 6.21211C10.5093 6.20798 11.6051 6.17493 11.9361 6.21377Z" fill="black"/>
<path d="M12.1934 15.0946C12.187 15.4167 12.0543 15.7233 11.8238 15.9485C11.5933 16.1738 11.2835 16.2997 10.9611 16.2991C10.3501 16.2916 9.8098 15.7247 9.82097 15.1033C9.82312 14.9456 9.85651 14.7899 9.91924 14.6451C9.98196 14.5004 10.0728 14.3694 10.1864 14.2599C10.3001 14.1504 10.4343 14.0645 10.5814 14.007C10.7285 13.9496 10.8855 13.9218 11.0434 13.9253C11.6672 13.9361 12.2054 14.4827 12.1934 15.0946Z" fill="black"/>
</g>
<defs>
<clipPath id="clip0_788_578">
<rect width="22" height="23" fill="white"/>
</clipPath>
</defs>
</svg>
