<svg width="25" height="16" viewBox="0 0 25 16" fill="none" xmlns="http://www.w3.org/2000/svg">
<rect x="0.5" y="0.5" width="24" height="15" stroke="#474020"/>
<path d="M3.62975 4.7H5.14175L6.46475 6.581L7.80575 4.7H9.29975L7.22075 7.598L9.66875 11H8.15675L6.44675 8.651L4.74575 11H3.25175L5.70875 7.607L3.62975 4.7ZM14.9032 11H10.4122V4.7H11.7082V9.839H14.9032V11ZM17.9231 11.126C16.9751 11.126 16.1771 10.901 15.5291 10.451V9.101C15.7931 9.329 16.1411 9.527 16.5731 9.695C17.0111 9.857 17.4431 9.938 17.8691 9.938C18.2231 9.938 18.5141 9.875 18.7421 9.749C18.9701 9.617 19.0841 9.437 19.0841 9.209C19.0841 8.963 18.9761 8.789 18.7601 8.687C18.6701 8.633 18.5501 8.579 18.4001 8.525L18.1841 8.453L17.6801 8.3L17.2121 8.147C17.1461 8.129 17.0051 8.078 16.7891 7.994C16.6031 7.922 16.4681 7.859 16.3841 7.805C16.0721 7.589 15.8741 7.406 15.7901 7.256C15.6461 6.968 15.5741 6.674 15.5741 6.374C15.5741 5.816 15.7871 5.378 16.2131 5.06C16.6391 4.736 17.2181 4.574 17.9501 4.574C18.6881 4.574 19.3751 4.748 20.0111 5.096V6.356C19.3691 5.96 18.6881 5.762 17.9681 5.762C17.2541 5.762 16.8971 5.969 16.8971 6.383C16.8971 6.563 17.0081 6.707 17.2301 6.815C17.3621 6.887 17.5331 6.95 17.7431 7.004C18.0251 7.082 18.2531 7.148 18.4271 7.202C18.9491 7.364 19.4051 7.583 19.7951 7.859C20.2151 8.153 20.4251 8.591 20.4251 9.173C20.4251 9.779 20.1881 10.256 19.7141 10.604C19.2401 10.952 18.6431 11.126 17.9231 11.126Z" fill="#474020"/>
</svg>
